<svg width="113" height="115" viewBox="0 0 113 115" fill="none" xmlns="http://www.w3.org/2000/svg">
<circle cx="54" cy="54" r="54" fill="#F2D16D"/>
<path d="M112.75 60.5C112.75 90.4636 88.6831 114.75 59 114.75C29.3169 114.75 5.25 90.4636 5.25 60.5C5.25 30.5364 29.3169 6.25 59 6.25C88.6831 6.25 112.75 30.5364 112.75 60.5Z" stroke="#F2F2F2" stroke-width="0.5"/>
<path d="M16.8334 53.355C17.6474 53.355 18.3588 53.5127 18.9674 53.828C19.5834 54.136 20.0564 54.5833 20.3864 55.17C20.7238 55.7493 20.8924 56.4277 20.8924 57.205C20.8924 57.9823 20.7238 58.657 20.3864 59.229C20.0564 59.801 19.5834 60.241 18.9674 60.549C18.3588 60.8497 17.6474 61 16.8334 61H14.3364V53.355H16.8334ZM16.8334 59.977C17.7281 59.977 18.4138 59.735 18.8904 59.251C19.3671 58.767 19.6054 58.085 19.6054 57.205C19.6054 56.3177 19.3671 55.6247 18.8904 55.126C18.4138 54.6273 17.7281 54.378 16.8334 54.378H15.5904V59.977H16.8334ZM25.7873 61.077C25.0759 61.077 24.4196 60.912 23.8183 60.582C23.2243 60.2447 22.7513 59.779 22.3993 59.185C22.0546 58.5837 21.8823 57.909 21.8823 57.161C21.8823 56.413 22.0546 55.742 22.3993 55.148C22.7513 54.554 23.2243 54.092 23.8183 53.762C24.4196 53.4247 25.0759 53.256 25.7873 53.256C26.5059 53.256 27.1623 53.4247 27.7563 53.762C28.3576 54.092 28.8306 54.554 29.1753 55.148C29.5199 55.742 29.6923 56.413 29.6923 57.161C29.6923 57.909 29.5199 58.5837 29.1753 59.185C28.8306 59.779 28.3576 60.2447 27.7563 60.582C27.1623 60.912 26.5059 61.077 25.7873 61.077ZM25.7873 59.988C26.2933 59.988 26.7443 59.8743 27.1403 59.647C27.5363 59.4123 27.8443 59.0823 28.0643 58.657C28.2916 58.2243 28.4053 57.7257 28.4053 57.161C28.4053 56.5963 28.2916 56.1013 28.0643 55.676C27.8443 55.2507 27.5363 54.9243 27.1403 54.697C26.7443 54.4697 26.2933 54.356 25.7873 54.356C25.2813 54.356 24.8303 54.4697 24.4343 54.697C24.0383 54.9243 23.7266 55.2507 23.4993 55.676C23.2793 56.1013 23.1693 56.5963 23.1693 57.161C23.1693 57.7257 23.2793 58.2243 23.4993 58.657C23.7266 59.0823 24.0383 59.4123 24.4343 59.647C24.8303 59.8743 25.2813 59.988 25.7873 59.988ZM41.0462 53.355L38.7802 61H37.3612L35.7552 55.214L34.0502 61L32.6422 61.011L30.4752 53.355H31.8062L33.3902 59.581L35.1062 53.355H36.5142L38.1092 59.548L39.7042 53.355H41.0462ZM48.5265 61H47.2725L43.4995 55.291V61H42.2455V53.344H43.4995L47.2725 59.042V53.344H48.5265V61ZM51.5922 59.988H54.1772V61H50.3382V53.355H51.5922V59.988ZM58.8779 61.077C58.1666 61.077 57.5103 60.912 56.9089 60.582C56.3149 60.2447 55.8419 59.779 55.4899 59.185C55.1453 58.5837 54.9729 57.909 54.9729 57.161C54.9729 56.413 55.1453 55.742 55.4899 55.148C55.8419 54.554 56.3149 54.092 56.9089 53.762C57.5103 53.4247 58.1666 53.256 58.8779 53.256C59.5966 53.256 60.2529 53.4247 60.8469 53.762C61.4483 54.092 61.9213 54.554 62.2659 55.148C62.6106 55.742 62.7829 56.413 62.7829 57.161C62.7829 57.909 62.6106 58.5837 62.2659 59.185C61.9213 59.779 61.4483 60.2447 60.8469 60.582C60.2529 60.912 59.5966 61.077 58.8779 61.077ZM58.8779 59.988C59.3839 59.988 59.8349 59.8743 60.2309 59.647C60.6269 59.4123 60.9349 59.0823 61.1549 58.657C61.3823 58.2243 61.4959 57.7257 61.4959 57.161C61.4959 56.5963 61.3823 56.1013 61.1549 55.676C60.9349 55.2507 60.6269 54.9243 60.2309 54.697C59.8349 54.4697 59.3839 54.356 58.8779 54.356C58.3719 54.356 57.9209 54.4697 57.5249 54.697C57.1289 54.9243 56.8173 55.2507 56.5899 55.676C56.3699 56.1013 56.2599 56.5963 56.2599 57.161C56.2599 57.7257 56.3699 58.2243 56.5899 58.657C56.8173 59.0823 57.1289 59.4123 57.5249 59.647C57.9209 59.8743 58.3719 59.988 58.8779 59.988ZM68.7909 59.438H65.5899L65.0399 61H63.7309L66.4699 53.344H67.9219L70.6609 61H69.3409L68.7909 59.438ZM68.4389 58.415L67.1959 54.862L65.9419 58.415H68.4389ZM74.5138 53.355C75.3278 53.355 76.0392 53.5127 76.6478 53.828C77.2638 54.136 77.7368 54.5833 78.0668 55.17C78.4042 55.7493 78.5728 56.4277 78.5728 57.205C78.5728 57.9823 78.4042 58.657 78.0668 59.229C77.7368 59.801 77.2638 60.241 76.6478 60.549C76.0392 60.8497 75.3278 61 74.5138 61H72.0168V53.355H74.5138ZM74.5138 59.977C75.4085 59.977 76.0942 59.735 76.5708 59.251C77.0475 58.767 77.2858 58.085 77.2858 57.205C77.2858 56.3177 77.0475 55.6247 76.5708 55.126C76.0942 54.6273 75.4085 54.378 74.5138 54.378H73.2708V59.977H74.5138ZM82.5851 57.161C82.5851 56.413 82.7574 55.742 83.1021 55.148C83.4541 54.554 83.9271 54.092 84.5211 53.762C85.1224 53.4247 85.7787 53.256 86.4901 53.256C87.3041 53.256 88.0264 53.4577 88.6571 53.861C89.2951 54.257 89.7571 54.8217 90.0431 55.555H88.5361C88.3381 55.1517 88.0631 54.851 87.7111 54.653C87.3591 54.455 86.9521 54.356 86.4901 54.356C85.9841 54.356 85.5331 54.4697 85.1371 54.697C84.7411 54.9243 84.4294 55.2507 84.2021 55.676C83.9821 56.1013 83.8721 56.5963 83.8721 57.161C83.8721 57.7257 83.9821 58.2207 84.2021 58.646C84.4294 59.0713 84.7411 59.4013 85.1371 59.636C85.5331 59.8633 85.9841 59.977 86.4901 59.977C86.9521 59.977 87.3591 59.878 87.7111 59.68C88.0631 59.482 88.3381 59.1813 88.5361 58.778H90.0431C89.7571 59.5113 89.2951 60.076 88.6571 60.472C88.0264 60.868 87.3041 61.066 86.4901 61.066C85.7714 61.066 85.1151 60.901 84.5211 60.571C83.9271 60.2337 83.4541 59.768 83.1021 59.174C82.7574 58.58 82.5851 57.909 82.5851 57.161ZM98.2649 53.355L95.3939 61H93.9419L91.0599 53.355H92.4019L94.6679 59.713L96.9449 53.355H98.2649Z" fill="black"/>
</svg>
