<svg width="49" height="49" viewBox="0 0 49 49" fill="none" xmlns="http://www.w3.org/2000/svg">
<g clip-path="url(#clip0_56_133)">
<path fill-rule="evenodd" clip-rule="evenodd" d="M24.215 0.140015C10.955 0.140015 0.214996 10.88 0.214996 24.14C0.214996 34.76 7.085 43.73 16.625 46.91C17.825 47.12 18.275 46.4 18.275 45.77C18.275 45.2 18.245 43.31 18.245 41.3C12.215 42.41 10.655 39.83 10.175 38.48C9.905 37.79 8.735 35.66 7.715 35.09C6.875 34.64 5.675 33.53 7.685 33.5C9.575 33.47 10.925 35.24 11.375 35.96C13.535 39.59 16.985 38.57 18.365 37.94C18.575 36.38 19.205 35.33 19.895 34.73C14.555 34.13 8.975 32.06 8.975 22.88C8.975 20.27 9.905 18.11 11.435 16.43C11.195 15.83 10.355 13.37 11.675 10.07C11.675 10.07 13.685 9.44001 18.275 12.53C20.195 11.99 22.235 11.72 24.275 11.72C26.315 11.72 28.355 11.99 30.275 12.53C34.865 9.41002 36.875 10.07 36.875 10.07C38.195 13.37 37.355 15.83 37.115 16.43C38.645 18.11 39.575 20.24 39.575 22.88C39.575 32.09 33.965 34.13 28.625 34.73C29.495 35.48 30.245 36.92 30.245 39.17C30.245 42.38 30.215 44.96 30.215 45.77C30.215 46.4 30.665 47.15 31.865 46.91C41.345 43.73 48.215 34.73 48.215 24.14C48.215 10.88 37.475 0.140015 24.215 0.140015Z" fill="#F2F2F2"/>
</g>
<defs>
<clipPath id="clip0_56_133">
<rect width="48" height="48" fill="white" transform="translate(0.214996 0.140015)"/>
</clipPath>
</defs>
</svg>
