<svg width="49" height="49" viewBox="0 0 49 49" fill="none" xmlns="http://www.w3.org/2000/svg">
<g clip-path="url(#clip0_56_132)">
<path fill-rule="evenodd" clip-rule="evenodd" d="M24.86 0.140015C11.6 0.140015 0.859993 10.88 0.859993 24.14C0.859993 34.76 7.72999 43.73 17.27 46.91C18.47 47.12 18.92 46.4 18.92 45.77C18.92 45.2 18.89 43.31 18.89 41.3C12.86 42.41 11.3 39.83 10.82 38.48C10.55 37.79 9.37999 35.66 8.35999 35.09C7.51999 34.64 6.31999 33.53 8.32999 33.5C10.22 33.47 11.57 35.24 12.02 35.96C14.18 39.59 17.63 38.57 19.01 37.94C19.22 36.38 19.85 35.33 20.54 34.73C15.2 34.13 9.61999 32.06 9.61999 22.88C9.61999 20.27 10.55 18.11 12.08 16.43C11.84 15.83 11 13.37 12.32 10.07C12.32 10.07 14.33 9.44002 18.92 12.53C20.84 11.99 22.88 11.72 24.92 11.72C26.96 11.72 29 11.99 30.92 12.53C35.51 9.41002 37.52 10.07 37.52 10.07C38.84 13.37 38 15.83 37.76 16.43C39.29 18.11 40.22 20.24 40.22 22.88C40.22 32.09 34.61 34.13 29.27 34.73C30.14 35.48 30.89 36.92 30.89 39.17C30.89 42.38 30.86 44.96 30.86 45.77C30.86 46.4 31.31 47.15 32.51 46.91C41.99 43.73 48.86 34.73 48.86 24.14C48.86 10.88 38.12 0.140015 24.86 0.140015Z" fill="black"/>
</g>
<defs>
<clipPath id="clip0_56_132">
<rect width="48" height="48" fill="white" transform="translate(0.859993 0.140015)"/>
</clipPath>
</defs>
</svg>
