<svg width="49" height="49" viewBox="0 0 49 49" fill="none" xmlns="http://www.w3.org/2000/svg">
<path d="M38.645 6.14001H10.645C8.43499 6.14001 6.64499 7.93001 6.64499 10.14V38.14C6.64499 40.35 8.43499 42.14 10.645 42.14H38.645C40.855 42.14 42.645 40.35 42.645 38.14V10.14C42.645 7.93001 40.855 6.14001 38.645 6.14001ZM18.645 34.14H13.599V20.14H18.645V34.14ZM16.033 17.574C14.491 17.574 13.461 16.546 13.461 15.174C13.461 13.802 14.489 12.774 16.203 12.774C17.745 12.774 18.775 13.802 18.775 15.174C18.775 16.546 17.747 17.574 16.033 17.574ZM36.645 34.14H31.761V26.488C31.761 24.372 30.459 23.884 29.971 23.884C29.483 23.884 27.855 24.21 27.855 26.488C27.855 26.814 27.855 34.14 27.855 34.14H22.809V20.14H27.855V22.094C28.505 20.954 29.807 20.14 32.249 20.14C34.691 20.14 36.645 22.094 36.645 26.488V34.14Z" fill="#F2F2F2"/>
</svg>
