<svg width="49" height="49" viewBox="0 0 49 49" fill="none" xmlns="http://www.w3.org/2000/svg">
<path d="M38.86 6.14001H10.86C8.64999 6.14001 6.85999 7.93001 6.85999 10.14V38.14C6.85999 40.35 8.64999 42.14 10.86 42.14H38.86C41.07 42.14 42.86 40.35 42.86 38.14V10.14C42.86 7.93001 41.07 6.14001 38.86 6.14001ZM18.86 34.14H13.814V20.14H18.86V34.14ZM16.248 17.574C14.706 17.574 13.676 16.546 13.676 15.174C13.676 13.802 14.704 12.774 16.418 12.774C17.96 12.774 18.99 13.802 18.99 15.174C18.99 16.546 17.962 17.574 16.248 17.574ZM36.86 34.14H31.976V26.488C31.976 24.372 30.674 23.884 30.186 23.884C29.698 23.884 28.07 24.21 28.07 26.488C28.07 26.814 28.07 34.14 28.07 34.14H23.024V20.14H28.07V22.094C28.72 20.954 30.022 20.14 32.464 20.14C34.906 20.14 36.86 22.094 36.86 26.488V34.14Z" fill="black"/>
</svg>
