<svg width="48" height="29" viewBox="0 0 48 29" fill="none" xmlns="http://www.w3.org/2000/svg">
<g clip-path="url(#clip0_43_19)">
<path d="M11.325 7.55625H20.3812V8.27813H12.1594V13.6875H19.8937V14.4094H12.1594V20.3531H20.475V21.075H11.325V7.55625ZM21.1875 7.55625H22.1531L26.4187 13.5L30.7781 7.55625L36.6937 0L26.9625 14.1188L31.9781 21.0656H30.975L26.4094 14.7375L21.825 21.0656H20.8406L25.8938 14.1188L21.1875 7.55625ZM32.3344 8.26875V7.54688H42.6469V8.26875H37.8938V21.0656H37.0594V8.26875H32.3344ZM0 7.55625H1.04063L15.3469 28.9594L9.43125 21.075L0.871875 8.57812L0.834375 21.075H0V7.55625ZM42.5719 20.1375C42.4031 20.1375 42.2719 20.0063 42.2719 19.8375C42.2719 19.6688 42.4031 19.5375 42.5719 19.5375C42.7406 19.5375 42.8719 19.6688 42.8719 19.8375C42.8719 20.0063 42.7406 20.1375 42.5719 20.1375ZM43.3875 19.3406H43.8281C43.8375 19.5844 44.0063 19.7438 44.2688 19.7438C44.5594 19.7438 44.7188 19.5656 44.7188 19.2469V17.1844H45.1687V19.2469C45.1687 19.8375 44.8313 20.175 44.2688 20.175C43.7438 20.175 43.3875 19.8469 43.3875 19.3406ZM45.7688 19.3219H46.2188C46.2563 19.6031 46.5281 19.7719 46.9125 19.7719C47.2781 19.7719 47.5406 19.5844 47.5406 19.3219C47.5406 19.0969 47.3719 18.9656 46.9875 18.8719L46.6125 18.7781C46.0875 18.6563 45.8438 18.4031 45.8438 17.9719C45.8438 17.4562 46.2656 17.1094 46.9031 17.1094C47.4937 17.1094 47.925 17.4562 47.9531 17.9437H47.5125C47.4656 17.6719 47.2406 17.5031 46.8938 17.5031C46.5375 17.5031 46.2937 17.6719 46.2937 17.9344C46.2937 18.1406 46.4438 18.2625 46.8281 18.3469L47.1469 18.4219C47.7469 18.5625 47.9906 18.8063 47.9906 19.2469C47.9906 19.8094 47.5594 20.1562 46.8656 20.1562C46.2281 20.175 45.7969 19.8375 45.7688 19.3219Z" fill="black"/>
</g>
<defs>
<clipPath id="clip0_43_19">
<rect width="48" height="28.9688" fill="white"/>
</clipPath>
</defs>
</svg>
