<svg width="512" height="512" viewBox="0 0 512 512" fill="none" xmlns="http://www.w3.org/2000/svg">
<g filter="url(#filter0_d_208_138)">
<path d="M58 27.5C58 21.9772 62.4772 17.5 68 17.5H456C461.523 17.5 466 21.9772 466 27.5V323.101C466 325.904 464.824 328.578 462.757 330.473L430 360.5L378 410.5L309.068 474.34C302.351 480.562 291.498 475.233 292.313 466.114L302.027 357.39C302.55 351.539 297.941 346.5 292.067 346.5H68C62.4771 346.5 58 342.023 58 336.5V27.5Z" fill="#F2F2F2"/>
</g>
<g filter="url(#filter1_d_208_138)">
<path fill-rule="evenodd" clip-rule="evenodd" d="M86 45H128.338V303.393L231.583 203.862V315.698H86V45ZM280.835 315.698H425.946V45H383.608V303.393L319.791 245.468L280.835 205.718V315.698Z" fill="url(#paint0_linear_208_138)"/>
</g>
<g filter="url(#filter2_d_208_138)">
<path d="M314 433L327.763 315H426L314 433Z" fill="url(#paint1_linear_208_138)"/>
</g>
<defs>
<filter id="filter0_d_208_138" x="53" y="17.5" width="428" height="484.531" filterUnits="userSpaceOnUse" color-interpolation-filters="sRGB">
<feFlood flood-opacity="0" result="BackgroundImageFix"/>
<feColorMatrix in="SourceAlpha" type="matrix" values="0 0 0 0 0 0 0 0 0 0 0 0 0 0 0 0 0 0 127 0" result="hardAlpha"/>
<feOffset dx="5" dy="15"/>
<feGaussianBlur stdDeviation="5"/>
<feComposite in2="hardAlpha" operator="out"/>
<feColorMatrix type="matrix" values="0 0 0 0 0 0 0 0 0 0 0 0 0 0 0 0 0 0 1 0"/>
<feBlend mode="normal" in2="BackgroundImageFix" result="effect1_dropShadow_208_138"/>
<feBlend mode="normal" in="SourceGraphic" in2="effect1_dropShadow_208_138" result="shape"/>
</filter>
<filter id="filter1_d_208_138" x="81" y="45" width="359.946" height="295.698" filterUnits="userSpaceOnUse" color-interpolation-filters="sRGB">
<feFlood flood-opacity="0" result="BackgroundImageFix"/>
<feColorMatrix in="SourceAlpha" type="matrix" values="0 0 0 0 0 0 0 0 0 0 0 0 0 0 0 0 0 0 127 0" result="hardAlpha"/>
<feOffset dx="5" dy="15"/>
<feGaussianBlur stdDeviation="5"/>
<feComposite in2="hardAlpha" operator="out"/>
<feColorMatrix type="matrix" values="0 0 0 0 0 0 0 0 0 0 0 0 0 0 0 0 0 0 1 0"/>
<feBlend mode="normal" in2="BackgroundImageFix" result="effect1_dropShadow_208_138"/>
<feBlend mode="normal" in="SourceGraphic" in2="effect1_dropShadow_208_138" result="shape"/>
</filter>
<filter id="filter2_d_208_138" x="309" y="315" width="132" height="143" filterUnits="userSpaceOnUse" color-interpolation-filters="sRGB">
<feFlood flood-opacity="0" result="BackgroundImageFix"/>
<feColorMatrix in="SourceAlpha" type="matrix" values="0 0 0 0 0 0 0 0 0 0 0 0 0 0 0 0 0 0 127 0" result="hardAlpha"/>
<feOffset dx="5" dy="15"/>
<feGaussianBlur stdDeviation="5"/>
<feComposite in2="hardAlpha" operator="out"/>
<feColorMatrix type="matrix" values="0 0 0 0 0 0 0 0 0 0 0 0 0 0 0 0 0 0 1 0"/>
<feBlend mode="normal" in2="BackgroundImageFix" result="effect1_dropShadow_208_138"/>
<feBlend mode="normal" in="SourceGraphic" in2="effect1_dropShadow_208_138" result="shape"/>
</filter>
<linearGradient id="paint0_linear_208_138" x1="-75.8814" y1="-105.385" x2="418.664" y2="304.561" gradientUnits="userSpaceOnUse">
<stop stop-color="#141216"/>
<stop offset="0.383464" stop-color="#7B70C7"/>
<stop offset="1" stop-color="#C266B8"/>
</linearGradient>
<linearGradient id="paint1_linear_208_138" x1="433.467" y1="440.695" x2="310.061" y2="373.753" gradientUnits="userSpaceOnUse">
<stop stop-color="#141216"/>
<stop offset="0.249111" stop-color="#7B70C7"/>
<stop offset="1" stop-color="#C266B8"/>
</linearGradient>
</defs>
</svg>
