<svg width="48" height="49" viewBox="0 0 48 49" fill="none" xmlns="http://www.w3.org/2000/svg">
<path d="M0 3.14001V45.14H48V3.14001H0ZM28.0929 34.49C27.3857 34.7713 24.5357 35.0525 22.7357 33.1588C21.75 32.165 20.025 30.0369 18.2143 27.1963C17.2607 27.1963 16.6393 27.1963 15.9214 27.14V31.49C15.9214 33.6931 16.5643 33.4775 18.6857 33.7306V34.49C17.9464 34.4619 16.2107 34.415 14.8714 34.415C13.4679 34.415 12.075 34.4713 11.2714 34.49V33.7306C12.9321 33.4588 13.6286 33.6088 13.6286 31.49V21.2338C13.6286 19.115 12.9429 19.265 11.2714 18.9931V18.2338C14.0357 18.3275 16.9607 18.1775 18.8679 18.1775C22.2643 18.1775 24.8571 19.5275 24.8571 22.4525C24.8571 24.4306 23.0679 26.4088 20.6571 26.9056C22.1143 29.1744 23.8714 31.1806 25.1786 32.4275C25.95 33.1588 27.0214 33.8056 28.0929 33.8056V34.49ZM30.5464 21.8338C28.05 21.8338 27.0964 20.3619 27.0964 18.815V15.7963C27.0964 14.6525 28.0393 12.9463 30.7393 12.9463C33.4393 12.9463 33.9964 14.6244 33.9964 14.6244L32.85 15.2994C32.85 15.2994 32.2607 14.1275 30.7393 14.1275C29.8929 14.1275 28.6286 14.8119 28.6286 15.9744V18.4869C28.6286 19.7431 29.3357 20.6713 30.5464 20.6713C32.0571 20.6713 32.85 19.6494 32.85 18.1588H30.9321V17.1556H34.1893C34.1893 19.0775 34.6929 21.8338 30.5464 21.8338ZM18.0643 26.0244C17.0571 26.0244 16.6071 25.9963 15.9214 25.9494V19.415C16.6071 19.3588 17.5286 19.3588 18.3321 19.3588C20.8286 19.3588 22.3179 20.5025 22.3179 22.5931C22.3179 24.6463 20.7107 26.0244 18.0643 26.0244Z" fill="#F2F2F2"/>
</svg>
