<svg width="49" height="49" viewBox="0 0 49 49" fill="none" xmlns="http://www.w3.org/2000/svg">
<g clip-path="url(#clip0_56_149)">
<path d="M0.859993 3.14001V45.14H48.86V3.14001H0.859993ZM28.9529 34.49C28.2457 34.7713 25.3957 35.0525 23.5957 33.1588C22.61 32.165 20.885 30.0369 19.0743 27.1963C18.1207 27.1963 17.4993 27.1963 16.7814 27.14V31.49C16.7814 33.6931 17.4243 33.4775 19.5457 33.7306V34.49C18.8064 34.4619 17.0707 34.415 15.7314 34.415C14.3279 34.415 12.935 34.4713 12.1314 34.49V33.7306C13.7921 33.4588 14.4886 33.6088 14.4886 31.49V21.2338C14.4886 19.115 13.8028 19.265 12.1314 18.9931V18.2338C14.8957 18.3275 17.8207 18.1775 19.7279 18.1775C23.1243 18.1775 25.7171 19.5275 25.7171 22.4525C25.7171 24.4306 23.9279 26.4088 21.5171 26.9056C22.9743 29.1744 24.7314 31.1806 26.0386 32.4275C26.81 33.1588 27.8814 33.8056 28.9529 33.8056V34.49ZM31.4064 21.8338C28.91 21.8338 27.9564 20.3619 27.9564 18.815V15.7963C27.9564 14.6525 28.8993 12.9463 31.5993 12.9463C34.2993 12.9463 34.8564 14.6244 34.8564 14.6244L33.71 15.2994C33.71 15.2994 33.1207 14.1275 31.5993 14.1275C30.7528 14.1275 29.4886 14.8119 29.4886 15.9744V18.4869C29.4886 19.7431 30.1957 20.6713 31.4064 20.6713C32.9171 20.6713 33.71 19.6494 33.71 18.1588H31.7921V17.1556H35.0493C35.0493 19.0775 35.5529 21.8338 31.4064 21.8338ZM18.9243 26.0244C17.9171 26.0244 17.4671 25.9963 16.7814 25.9494V19.415C17.4671 19.3588 18.3886 19.3588 19.1921 19.3588C21.6886 19.3588 23.1779 20.5025 23.1779 22.5931C23.1779 24.6463 21.5707 26.0244 18.9243 26.0244Z" fill="black"/>
</g>
<defs>
<clipPath id="clip0_56_149">
<rect width="48" height="48" fill="white" transform="translate(0.859993 0.140015)"/>
</clipPath>
</defs>
</svg>
