<svg width="48" height="48" viewBox="0 0 48 48" fill="none" xmlns="http://www.w3.org/2000/svg">
<g clip-path="url(#clip0_45_42)">
<path d="M0 24V48H24H48V24V0H24H0V24Z" fill="#007ACC"/>
<path d="M10.6146 24.1592L10.5994 26.1249L13.7232 26.1249H16.847V35.0011V43.8773H19.0565H21.266V35.0011V26.1249H24.3898H27.5136V24.1973C27.5136 23.1306 27.4908 22.2392 27.4603 22.2164C27.4375 22.1859 23.6355 22.1706 19.026 22.1783L10.6374 22.2011L10.6146 24.1592Z" fill="white"/>
<path d="M38.7312 22.1453C39.9503 22.4501 40.8798 22.991 41.7331 23.8748C42.1751 24.3472 42.8303 25.2082 42.8836 25.4139C42.8989 25.4748 40.8112 26.8767 39.5465 27.6615C39.5008 27.692 39.3179 27.4939 39.1122 27.1891C38.495 26.2901 37.8474 25.9015 36.857 25.8329C35.4017 25.7339 34.4646 26.4958 34.4722 27.7682C34.4722 28.1415 34.5255 28.3625 34.6779 28.6672C34.9979 29.3301 35.5922 29.7263 37.4589 30.5339C40.895 32.012 42.3655 32.9872 43.2798 34.3739C44.3008 35.9206 44.5293 38.3891 43.836 40.2253C43.0741 42.2215 41.1846 43.5777 38.5255 44.0272C37.7027 44.172 35.7522 44.1491 34.8684 43.9891C32.9408 43.6463 31.1122 42.6939 29.9846 41.4444C29.5427 40.9567 28.6817 39.6844 28.735 39.5929C28.7579 39.5625 28.956 39.4406 29.177 39.311C29.3903 39.1891 30.1979 38.7244 30.9598 38.2825L32.3389 37.4825L32.6284 37.9091C33.0322 38.5263 33.916 39.372 34.4493 39.6539C35.9808 40.4615 38.0836 40.3472 39.1198 39.4177C39.5617 39.0139 39.7446 38.5948 39.7446 37.9777C39.7446 37.4215 39.676 37.1777 39.3865 36.7586C39.0131 36.2253 38.2512 35.7758 36.0874 34.8386C33.6112 33.772 32.5446 33.1091 31.5693 32.0577C31.0055 31.4482 30.4722 30.4729 30.2512 29.6577C30.0684 28.9796 30.0227 27.2806 30.1674 26.5948C30.6779 24.2025 32.4836 22.5339 35.0893 22.0386C35.9351 21.8786 37.9008 21.9396 38.7312 22.1453Z" fill="white"/>
</g>
<defs>
<clipPath id="clip0_45_42">
<rect width="48" height="48" fill="white"/>
</clipPath>
</defs>
</svg>
