<svg width="197" height="197" version="1.1" xmlns="http://www.w3.org/2000/svg" desc="Created with https://tools.webdevpuneet.com/image-to-svg-converter/"><path fill="rgb(253,153,52)" stroke="rgb(253,153,52)" stroke-width="1" opacity="1" d="M 2 21 L 197 21.5 L 195.5 24 L 192.5 23 L 191.5 24 L 128.5 24 L 125.5 23 Q 124 25.5 118.5 24 L 114.5 23 L 113.5 24 L 56.5 24 L 53.5 23 L 52.5 24 L 32.5 24 L 29.5 23 L 28.5 24 L 13.5 24 L 10.5 23 L 6.5 24 L 3 23 L 3.5 28 L 4.5 26 L 7 26.5 Q 6.2 29.1 9.5 28 L 12 27 Q 13.3 31.6 10.5 33 L 10 30 L 7.5 29 L 4.5 33 L 3.5 29 L 3 47 L 12.5 47 L 13.5 45 L 191.5 45 L 193.5 45 L 196 45.5 L 193 46.5 L 197 47.5 L 2 48 L 2 21 Z "></path><path fill="rgb(253,153,52)" stroke="rgb(253,153,52)" stroke-width="1" opacity="1" d="M 17.5 25 L 192 25.5 L 190.5 27 L 17 27 L 16 32.5 Q 18.8 34.3 17 40.5 L 16 44 L 13 43.5 L 13 33 Q 15.7 34.1 15 31.5 L 14 27.5 L 17.5 25 Z "></path><path fill="rgb(253,153,52)" stroke="rgb(253,153,52)" stroke-width="1" opacity="1" d="M 194.5 25 L 196 27.5 L 194 28.5 L 194.5 25 Z "></path><path fill="rgb(253,153,52)" stroke="rgb(253,153,52)" stroke-width="1" opacity="1" d="M 6.5 33 L 7 40.5 L 6 40.5 L 6.5 33 Z "></path><path fill="rgb(253,153,52)" stroke="rgb(253,153,52)" stroke-width="1" opacity="1" d="M 6 42 L 8 42.5 L 6 43.5 L 6 42 Z "></path><path fill="rgb(255,153,53)" stroke="rgb(255,153,53)" stroke-width="1" opacity="1" d="M 3 23 L 9.5 24 L 12.5 23 L 13.5 24 L 28.5 24 L 31.5 23 L 32.5 24 L 52.5 24 L 55.5 23 L 56.5 24 L 113.5 24 L 117.5 23 Q 119 25.5 124.5 24 L 127.5 23 L 128.5 24 L 191.5 24 L 194.5 23 L 196 25.5 L 194 25.5 L 194.5 29 L 196 28.5 L 196 39.5 L 195 40.5 L 195 42.5 L 196 44.5 L 193.5 45 L 191.5 45 L 13.5 45 L 12.5 47 L 3 47 L 3.5 29 L 4.5 33 L 7.5 29 L 10 30 L 10.5 33 Q 13.3 31.6 12 27 L 7 28 L 6.5 26 L 4 26.5 L 3.5 28 L 3 23 Z M 18 25 L 14 28 L 15 32 Q 16 34 13 33 L 13 44 L 16 44 L 17 41 Q 19 34 16 33 L 17 27 L 191 27 L 192 26 L 18 25 Z M 7 33 L 6 41 L 7 41 L 7 33 Z M 6 42 L 6 44 L 8 43 L 6 42 Z "></path><path fill="rgb(255,153,53)" stroke="rgb(255,153,53)" stroke-width="1" opacity="1" d="M 193.5 46 L 196 46.5 L 193.5 47 L 193.5 46 Z "></path><path fill="rgb(246,144,29)" stroke="rgb(246,144,29)" stroke-width="1" opacity="1" d="M 196.5 22 L 197 46.5 L 196 46.5 L 196.5 22 Z "></path><path fill="rgb(176,137,139)" stroke="rgb(176,137,139)" stroke-width="1" opacity="1" d="M 1.5 1 L 2 20.5 L 1 20.5 L 1.5 1 Z "></path><path fill="rgb(176,137,139)" stroke="rgb(176,137,139)" stroke-width="1" opacity="1" d="M 2.5 48 L 197 48.5 L 2 49 L 1.5 148 L 1 49.5 L 2.5 48 Z "></path><path fill="rgb(176,137,139)" stroke="rgb(176,137,139)" stroke-width="1" opacity="1" d="M 49.5 57 L 50.5 59 L 49.5 57 Z "></path><path fill="rgb(176,137,139)" stroke="rgb(176,137,139)" stroke-width="1" opacity="1" d="M 32.5 58 L 33 87 L 36 86.5 L 36 58.5 L 37 58.5 L 37 86.5 L 35.5 88 L 32 86.5 L 32.5 58 Z "></path><path fill="rgb(176,137,139)" stroke="rgb(176,137,139)" stroke-width="1" opacity="1" d="M 162.5 58 L 163 78.5 L 161 79.5 L 162 78.5 L 162.5 58 Z "></path><path fill="rgb(176,137,139)" stroke="rgb(176,137,139)" stroke-width="1" opacity="1" d="M 166.5 58 L 167 85.5 L 166 85.5 L 166.5 58 Z "></path><path fill="rgb(176,137,139)" stroke="rgb(176,137,139)" stroke-width="1" opacity="1" d="M 147.5 62 L 148 86.5 L 144.5 88 L 144.5 87 L 147 86.5 L 147.5 62 Z "></path><path fill="rgb(176,137,139)" stroke="rgb(176,137,139)" stroke-width="1" opacity="1" d="M 120.5 79 L 131.5 79 L 133 80.5 L 131.5 80 L 120.5 80 L 120.5 79 Z "></path><path fill="rgb(176,137,139)" stroke="rgb(176,137,139)" stroke-width="1" opacity="1" d="M 108.5 86 L 107.5 88 L 105 87.5 L 108.5 86 Z "></path><path fill="rgb(176,137,139)" stroke="rgb(176,137,139)" stroke-width="1" opacity="1" d="M 134.5 86 L 139 87.5 L 135.5 88 L 134.5 86 Z "></path><path fill="rgb(176,137,139)" stroke="rgb(176,137,139)" stroke-width="1" opacity="1" d="M 45.5 87 L 48 87.5 L 45.5 88 L 45.5 87 Z "></path><path fill="rgb(176,137,139)" stroke="rgb(176,137,139)" stroke-width="1" opacity="1" d="M 63.5 87 L 66 87.5 L 63.5 88 L 63.5 87 Z "></path><path fill="rgb(176,137,139)" stroke="rgb(176,137,139)" stroke-width="1" opacity="1" d="M 76.5 87 L 85 87.5 L 76.5 88 L 76.5 87 Z "></path><path fill="rgb(176,137,139)" stroke="rgb(176,137,139)" stroke-width="1" opacity="1" d="M 113.5 87 L 117 87.5 L 113.5 88 L 113.5 87 Z "></path><path fill="rgb(176,137,139)" stroke="rgb(176,137,139)" stroke-width="1" opacity="1" d="M 162.5 87 L 165 87.5 L 162.5 88 L 162.5 87 Z "></path><path fill="rgb(176,137,139)" stroke="rgb(176,137,139)" stroke-width="1" opacity="1" d="M 42.5 99 L 42 100.5 L 42 129 L 57.5 129 L 57.5 130 L 42.5 130 L 41 128.5 L 41 100.5 L 42.5 99 Z "></path><path fill="rgb(176,137,139)" stroke="rgb(176,137,139)" stroke-width="1" opacity="1" d="M 48.5 99 L 58 99.5 L 48.5 100 L 48.5 99 Z "></path><path fill="rgb(176,137,139)" stroke="rgb(176,137,139)" stroke-width="1" opacity="1" d="M 69.5 99 L 72 99.5 L 69.5 100 L 69.5 99 Z "></path><path fill="rgb(176,137,139)" stroke="rgb(176,137,139)" stroke-width="1" opacity="1" d="M 73.5 99 L 76 99.5 L 73.5 100 L 73.5 99 Z "></path><path fill="rgb(176,137,139)" stroke="rgb(176,137,139)" stroke-width="1" opacity="1" d="M 125.5 99 L 132 99.5 L 125.5 100 L 125.5 99 Z "></path><path fill="rgb(176,137,139)" stroke="rgb(176,137,139)" stroke-width="1" opacity="1" d="M 142.5 99 L 152 99.5 L 142.5 100 L 142.5 99 Z "></path><path fill="rgb(176,137,139)" stroke="rgb(176,137,139)" stroke-width="1" opacity="1" d="M 80.5 101 L 81.5 103 L 80.5 101 Z "></path><path fill="rgb(176,137,139)" stroke="rgb(176,137,139)" stroke-width="1" opacity="1" d="M 45.5 103 L 46 111.5 L 45 111.5 L 45.5 103 Z "></path><path fill="rgb(176,137,139)" stroke="rgb(176,137,139)" stroke-width="1" opacity="1" d="M 19.5 111 L 21.5 114 L 19.5 111 Z "></path><path fill="rgb(176,137,139)" stroke="rgb(176,137,139)" stroke-width="1" opacity="1" d="M 56.5 113 L 57 114.5 L 55.5 116 L 46 116 L 45.5 126 L 45 116.5 L 46.5 115 L 56 115 L 56.5 113 Z "></path><path fill="rgb(176,137,139)" stroke="rgb(176,137,139)" stroke-width="1" opacity="1" d="M 32.5 114 L 34.5 117 L 32.5 114 Z "></path><path fill="rgb(176,137,139)" stroke="rgb(176,137,139)" stroke-width="1" opacity="1" d="M 121.5 115 L 131 115.5 L 121.5 116 L 121.5 115 Z "></path><path fill="rgb(176,137,139)" stroke="rgb(176,137,139)" stroke-width="1" opacity="1" d="M 150.5 117 L 151.5 119 L 150.5 117 Z "></path><path fill="rgb(176,137,139)" stroke="rgb(176,137,139)" stroke-width="1" opacity="1" d="M 31.5 120 L 32 122.5 L 31 122.5 L 31.5 120 Z "></path><path fill="rgb(176,137,139)" stroke="rgb(176,137,139)" stroke-width="1" opacity="1" d="M 181.5 120 L 182 122.5 L 181 122.5 L 181.5 120 Z "></path><path fill="rgb(176,137,139)" stroke="rgb(176,137,139)" stroke-width="1" opacity="1" d="M 133.5 126 L 134 128.5 L 132.5 130 L 118.5 130 L 118.5 129 L 132.5 129 L 133.5 126 Z "></path><path fill="rgb(176,137,139)" stroke="rgb(176,137,139)" stroke-width="1" opacity="1" d="M 170.5 126 L 173 126.5 L 170.5 127 L 170.5 126 Z "></path><path fill="rgb(176,137,139)" stroke="rgb(176,137,139)" stroke-width="1" opacity="1" d="M 179.5 126 L 178.5 128 L 179.5 126 Z "></path><path fill="rgb(176,137,139)" stroke="rgb(176,137,139)" stroke-width="1" opacity="1" d="M 96.5 128 L 102 129.5 L 97.5 130 L 96.5 128 Z "></path><path fill="rgb(176,137,139)" stroke="rgb(176,137,139)" stroke-width="1" opacity="1" d="M 81.5 129 L 85 129.5 L 81.5 130 L 81.5 129 Z "></path><path fill="rgb(176,137,139)" stroke="rgb(176,137,139)" stroke-width="1" opacity="1" d="M 140.5 129 L 144 129.5 L 140.5 130 L 140.5 129 Z "></path><path fill="rgb(176,137,139)" stroke="rgb(176,137,139)" stroke-width="1" opacity="1" d="M 156.5 129 L 160 129.5 L 156.5 130 L 156.5 129 Z "></path><path fill="rgb(176,137,139)" stroke="rgb(176,137,139)" stroke-width="1" opacity="1" d="M 1.5 149 L 2 174.5 L 1 174.5 L 1.5 149 Z "></path><path fill="rgb(176,137,139)" stroke="rgb(176,137,139)" stroke-width="1" opacity="1" d="M 1.5 176 L 2 196 L 197 196.5 L 2.5 197 L 1 195.5 L 1.5 176 Z "></path><path fill="rgb(17,12,68)" stroke="rgb(17,12,68)" stroke-width="1" opacity="1" d="M 2 1 L 197 1.5 L 3.5 2 L 2.5 3 L 2 1 Z "></path><path fill="rgb(17,12,68)" stroke="rgb(17,12,68)" stroke-width="1" opacity="1" d="M 2.5 5 L 3 12.5 L 2 12.5 L 2.5 5 Z "></path><path fill="rgb(17,12,68)" stroke="rgb(17,12,68)" stroke-width="1" opacity="1" d="M 2.5 14 L 3 19 L 197 19.5 L 2 20 L 2.5 14 Z "></path><path fill="rgb(17,12,68)" stroke="rgb(17,12,68)" stroke-width="1" opacity="1" d="M 2 49 L 197 49.5 L 3.5 50 L 2.5 51 L 2 49 Z "></path><path fill="rgb(17,12,68)" stroke="rgb(17,12,68)" stroke-width="1" opacity="1" d="M 2.5 52 L 3 62.5 L 2 62.5 L 2.5 52 Z "></path><path fill="rgb(17,12,68)" stroke="rgb(17,12,68)" stroke-width="1" opacity="1" d="M 33.5 56 L 36 56.5 L 33.5 57 L 33.5 56 Z "></path><path fill="rgb(17,12,68)" stroke="rgb(17,12,68)" stroke-width="1" opacity="1" d="M 46.5 56 Q 51.3 55.3 52 58.5 L 49.5 57 Q 45.5 57.8 46.5 56 Z "></path><path fill="rgb(17,12,68)" stroke="rgb(17,12,68)" stroke-width="1" opacity="1" d="M 76.5 56 Q 88.9 54.1 94 59.5 L 92.5 59 Q 87.1 55.4 76.5 57 L 76.5 56 Z "></path><path fill="rgb(17,12,68)" stroke="rgb(17,12,68)" stroke-width="1" opacity="1" d="M 104.5 56 L 107 56.5 L 104.5 57 L 104.5 56 Z "></path><path fill="rgb(17,12,68)" stroke="rgb(17,12,68)" stroke-width="1" opacity="1" d="M 124.5 56 L 127 56.5 L 124.5 57 L 124.5 56 Z "></path><path fill="rgb(17,12,68)" stroke="rgb(17,12,68)" stroke-width="1" opacity="1" d="M 144.5 56 L 148 56.5 L 144.5 57 L 144.5 56 Z "></path><path fill="rgb(17,12,68)" stroke="rgb(17,12,68)" stroke-width="1" opacity="1" d="M 163.5 56 L 166 56.5 L 163.5 57 L 163.5 56 Z "></path><path fill="rgb(17,12,68)" stroke="rgb(17,12,68)" stroke-width="1" opacity="1" d="M 149.5 57 L 153 61.5 L 151 60.5 L 149.5 57 Z "></path><path fill="rgb(17,12,68)" stroke="rgb(17,12,68)" stroke-width="1" opacity="1" d="M 31.5 58 L 32 86.5 L 31 86.5 L 31.5 58 Z "></path><path fill="rgb(17,12,68)" stroke="rgb(17,12,68)" stroke-width="1" opacity="1" d="M 62.5 58 L 63 70.5 L 62 70.5 L 62.5 58 Z "></path><path fill="rgb(17,12,68)" stroke="rgb(17,12,68)" stroke-width="1" opacity="1" d="M 103.5 58 L 104 65.5 L 103 65.5 L 103.5 58 Z "></path><path fill="rgb(17,12,68)" stroke="rgb(17,12,68)" stroke-width="1" opacity="1" d="M 167.5 58 L 168 72.5 L 167 72.5 L 167.5 58 Z "></path><path fill="rgb(17,12,68)" stroke="rgb(17,12,68)" stroke-width="1" opacity="1" d="M 52.5 60 L 54 62.5 L 53 62.5 L 52.5 60 Z "></path><path fill="rgb(17,12,68)" stroke="rgb(17,12,68)" stroke-width="1" opacity="1" d="M 74.5 60 L 75 63 L 73 62.5 L 74.5 60 Z "></path><path fill="rgb(17,12,68)" stroke="rgb(17,12,68)" stroke-width="1" opacity="1" d="M 79 61 L 87 61.5 L 80 62 L 79.5 84 L 79 61 Z "></path><path fill="rgb(17,12,68)" stroke="rgb(17,12,68)" stroke-width="1" opacity="1" d="M 95.5 61 L 96.5 63 L 95.5 61 Z "></path><path fill="rgb(17,12,68)" stroke="rgb(17,12,68)" stroke-width="1" opacity="1" d="M 88.5 62 L 91 63.5 L 89.5 64 L 88.5 62 Z "></path><path fill="rgb(17,12,68)" stroke="rgb(17,12,68)" stroke-width="1" opacity="1" d="M 48.5 63 L 51 67.5 L 49 66.5 L 48.5 63 Z "></path><path fill="rgb(17,12,68)" stroke="rgb(17,12,68)" stroke-width="1" opacity="1" d="M 120.5 63 L 121 64.5 L 119.5 68 L 119 65.5 L 120.5 63 Z "></path><path fill="rgb(17,12,68)" stroke="rgb(17,12,68)" stroke-width="1" opacity="1" d="M 125.5 63 L 128 68.5 L 127 68.5 L 125.5 66 L 123.5 71 L 123 69.5 L 125.5 63 Z "></path><path fill="rgb(17,12,68)" stroke="rgb(17,12,68)" stroke-width="1" opacity="1" d="M 153.5 63 L 156 67.5 L 155 67.5 L 153.5 63 Z "></path><path fill="rgb(17,12,68)" stroke="rgb(17,12,68)" stroke-width="1" opacity="1" d="M 43.5 64 L 44 71.5 L 43 71.5 L 43.5 64 Z "></path><path fill="rgb(17,12,68)" stroke="rgb(17,12,68)" stroke-width="1" opacity="1" d="M 74.5 64 L 75 81.5 L 74 81.5 L 74.5 64 Z "></path><path fill="rgb(17,12,68)" stroke="rgb(17,12,68)" stroke-width="1" opacity="1" d="M 131.5 64 L 134 69.5 L 133 69.5 L 131.5 64 Z "></path><path fill="rgb(17,12,68)" stroke="rgb(17,12,68)" stroke-width="1" opacity="1" d="M 148.5 64 L 153 72.5 L 151 71.5 L 149.5 68 L 148.5 78 L 148.5 64 Z "></path><path fill="rgb(17,12,68)" stroke="rgb(17,12,68)" stroke-width="1" opacity="1" d="M 55.5 66 L 61.5 76 L 62.5 72 L 63 79.5 L 62 79.5 L 55.5 66 Z "></path><path fill="rgb(17,12,68)" stroke="rgb(17,12,68)" stroke-width="1" opacity="1" d="M 161.5 66 L 162 69.5 L 161 69.5 L 161.5 66 Z "></path><path fill="rgb(17,12,68)" stroke="rgb(17,12,68)" stroke-width="1" opacity="1" d="M 98.5 68 L 99 75.5 L 98 75.5 L 98.5 68 Z "></path><path fill="rgb(17,12,68)" stroke="rgb(17,12,68)" stroke-width="1" opacity="1" d="M 156.5 69 L 157.5 71 L 156.5 69 Z "></path><path fill="rgb(17,12,68)" stroke="rgb(17,12,68)" stroke-width="1" opacity="1" d="M 103.5 70 L 104 75.5 L 103 75.5 L 103.5 70 Z "></path><path fill="rgb(17,12,68)" stroke="rgb(17,12,68)" stroke-width="1" opacity="1" d="M 117.5 71 L 118 72.5 L 116.5 75 L 116 73.5 L 117.5 71 Z "></path><path fill="rgb(17,12,68)" stroke="rgb(17,12,68)" stroke-width="1" opacity="1" d="M 122.5 72 L 124 75.5 L 121.5 76 L 122 74.5 L 122.5 72 Z "></path><path fill="rgb(17,12,68)" stroke="rgb(17,12,68)" stroke-width="1" opacity="1" d="M 158.5 72 L 160 75 Q 163.3 73.7 162 78.5 L 161 78.5 L 158.5 72 Z "></path><path fill="rgb(17,12,68)" stroke="rgb(17,12,68)" stroke-width="1" opacity="1" d="M 53.5 73 L 61 85.5 L 59 84.5 L 53.5 73 Z "></path><path fill="rgb(17,12,68)" stroke="rgb(17,12,68)" stroke-width="1" opacity="1" d="M 92.5 75 L 93 77.5 L 92 77.5 L 92.5 75 Z "></path><path fill="rgb(17,12,68)" stroke="rgb(17,12,68)" stroke-width="1" opacity="1" d="M 103.5 77 L 104 86.5 L 103 86.5 L 103.5 77 Z "></path><path fill="rgb(17,12,68)" stroke="rgb(17,12,68)" stroke-width="1" opacity="1" d="M 155.5 78 L 156.5 80 L 155.5 78 Z "></path><path fill="rgb(17,12,68)" stroke="rgb(17,12,68)" stroke-width="1" opacity="1" d="M 43.5 79 L 44 81.5 L 43 81.5 L 43.5 79 Z "></path><path fill="rgb(17,12,68)" stroke="rgb(17,12,68)" stroke-width="1" opacity="1" d="M 91.5 79 L 88.5 83 L 87 82.5 L 91.5 79 Z "></path><path fill="rgb(17,12,68)" stroke="rgb(17,12,68)" stroke-width="1" opacity="1" d="M 137.5 79 L 139 83.5 L 138 83.5 L 137.5 79 Z "></path><path fill="rgb(17,12,68)" stroke="rgb(17,12,68)" stroke-width="1" opacity="1" d="M 120.5 80 L 122 80.5 L 120 81 L 119.5 83 L 119 81.5 L 120.5 80 Z "></path><path fill="rgb(17,12,68)" stroke="rgb(17,12,68)" stroke-width="1" opacity="1" d="M 125.5 80 L 130 80.5 L 125.5 81 L 125.5 80 Z "></path><path fill="rgb(17,12,68)" stroke="rgb(17,12,68)" stroke-width="1" opacity="1" d="M 96.5 81 L 97 82.5 L 91.5 87 L 92.5 85 L 96 82.5 L 96.5 81 Z "></path><path fill="rgb(17,12,68)" stroke="rgb(17,12,68)" stroke-width="1" opacity="1" d="M 148.5 81 L 149 84.5 L 148 84.5 L 148.5 81 Z "></path><path fill="rgb(17,12,68)" stroke="rgb(17,12,68)" stroke-width="1" opacity="1" d="M 167.5 82 L 168 85.5 L 167 85.5 L 167.5 82 Z "></path><path fill="rgb(17,12,68)" stroke="rgb(17,12,68)" stroke-width="1" opacity="1" d="M 159.5 85 L 161.5 88 L 159.5 85 Z "></path><path fill="rgb(17,12,68)" stroke="rgb(17,12,68)" stroke-width="1" opacity="1" d="M 117.5 87 L 116.5 89 L 114 88.5 L 117.5 87 Z "></path><path fill="rgb(17,12,68)" stroke="rgb(17,12,68)" stroke-width="1" opacity="1" d="M 45.5 88 L 48 88.5 L 45.5 89 L 45.5 88 Z "></path><path fill="rgb(17,12,68)" stroke="rgb(17,12,68)" stroke-width="1" opacity="1" d="M 77.5 88 L 85 88.5 L 77.5 89 L 77.5 88 Z "></path><path fill="rgb(17,12,68)" stroke="rgb(17,12,68)" stroke-width="1" opacity="1" d="M 105.5 88 L 108 88.5 L 105.5 89 L 105.5 88 Z "></path><path fill="rgb(17,12,68)" stroke="rgb(17,12,68)" stroke-width="1" opacity="1" d="M 135.5 88 L 138 88.5 L 135.5 89 L 135.5 88 Z "></path><path fill="rgb(17,12,68)" stroke="rgb(17,12,68)" stroke-width="1" opacity="1" d="M 144.5 88 L 147 88.5 L 144.5 89 L 144.5 88 Z "></path><path fill="rgb(17,12,68)" stroke="rgb(17,12,68)" stroke-width="1" opacity="1" d="M 22.5 98 L 27 98.5 Q 19.7 98.2 18 103.5 L 17.5 107 L 17 103.5 L 22.5 98 Z "></path><path fill="rgb(17,12,68)" stroke="rgb(17,12,68)" stroke-width="1" opacity="1" d="M 43.5 98 L 46 98.5 L 43.5 99 L 43.5 98 Z "></path><path fill="rgb(17,12,68)" stroke="rgb(17,12,68)" stroke-width="1" opacity="1" d="M 51.5 98 Q 57.5 96.5 59 99.5 L 58.5 102 L 58 99 L 51.5 99 L 51.5 98 Z "></path><path fill="rgb(17,12,68)" stroke="rgb(17,12,68)" stroke-width="1" opacity="1" d="M 66.5 98 L 76 98.5 L 66.5 99 L 66.5 98 Z "></path><path fill="rgb(17,12,68)" stroke="rgb(17,12,68)" stroke-width="1" opacity="1" d="M 87.5 98 Q 91.3 97.3 92 99.5 L 90.5 99 Q 86.5 99.8 87.5 98 Z "></path><path fill="rgb(17,12,68)" stroke="rgb(17,12,68)" stroke-width="1" opacity="1" d="M 108.5 98 L 112 98.5 L 108.5 99 L 108.5 98 Z "></path><path fill="rgb(17,12,68)" stroke="rgb(17,12,68)" stroke-width="1" opacity="1" d="M 118.5 98 L 133 98.5 L 118.5 99 L 118.5 98 Z "></path><path fill="rgb(17,12,68)" stroke="rgb(17,12,68)" stroke-width="1" opacity="1" d="M 143.5 98 L 149 98.5 L 143.5 99 L 143.5 98 Z "></path><path fill="rgb(17,12,68)" stroke="rgb(17,12,68)" stroke-width="1" opacity="1" d="M 168.5 98 L 172 98.5 Q 166.6 98.6 164.5 102 L 166.5 99 L 168.5 98 Z "></path><path fill="rgb(17,12,68)" stroke="rgb(17,12,68)" stroke-width="1" opacity="1" d="M 177.5 99 L 181 101.5 L 180.5 104 L 178.5 100 L 177.5 99 Z "></path><path fill="rgb(17,12,68)" stroke="rgb(17,12,68)" stroke-width="1" opacity="1" d="M 80.5 100 L 82.5 103 L 80.5 100 Z "></path><path fill="rgb(17,12,68)" stroke="rgb(17,12,68)" stroke-width="1" opacity="1" d="M 155.5 100 L 159 104.5 L 158 104.5 L 155.5 100 Z "></path><path fill="rgb(17,12,68)" stroke="rgb(17,12,68)" stroke-width="1" opacity="1" d="M 40.5 101 L 41 104.5 L 40 104.5 L 40.5 101 Z "></path><path fill="rgb(17,12,68)" stroke="rgb(17,12,68)" stroke-width="1" opacity="1" d="M 106.5 101 L 107 103.5 L 105.5 106 L 105 104.5 L 106.5 101 Z "></path><path fill="rgb(17,12,68)" stroke="rgb(17,12,68)" stroke-width="1" opacity="1" d="M 24.5 103 L 24 104.5 L 23.5 106 L 23 104.5 L 24.5 103 Z "></path><path fill="rgb(17,12,68)" stroke="rgb(17,12,68)" stroke-width="1" opacity="1" d="M 29.5 103 L 33 104.5 L 31.5 105 L 29.5 103 Z "></path><path fill="rgb(17,12,68)" stroke="rgb(17,12,68)" stroke-width="1" opacity="1" d="M 46 103 L 58 103.5 L 47 104 L 47 111 L 49.5 111 L 49.5 112 L 46 112 L 46 103 Z "></path><path fill="rgb(17,12,68)" stroke="rgb(17,12,68)" stroke-width="1" opacity="1" d="M 69 103 Q 76.1 101.3 78 105.5 L 75.5 104 L 70 104 L 70 112.5 L 69 112.5 L 69 103 Z "></path><path fill="rgb(17,12,68)" stroke="rgb(17,12,68)" stroke-width="1" opacity="1" d="M 121 103 L 133 103.5 L 122 104 L 122 111 L 130.5 111 L 130.5 112 L 121 112 L 121 103 Z "></path><path fill="rgb(17,12,68)" stroke="rgb(17,12,68)" stroke-width="1" opacity="1" d="M 144.5 103 Q 150.6 102.3 153 104 L 154 108.5 L 153 108.5 Q 153.5 104.5 150.5 104 L 144.5 104 L 144.5 103 Z "></path><path fill="rgb(17,12,68)" stroke="rgb(17,12,68)" stroke-width="1" opacity="1" d="M 173.5 103 L 178 104.5 L 176.5 105 L 173.5 104 L 173.5 103 Z "></path><path fill="rgb(17,12,68)" stroke="rgb(17,12,68)" stroke-width="1" opacity="1" d="M 83.5 104 L 84 106.5 L 83 106.5 L 83.5 104 Z "></path><path fill="rgb(17,12,68)" stroke="rgb(17,12,68)" stroke-width="1" opacity="1" d="M 168.5 105 L 172 110.5 L 168 107.5 L 168.5 105 Z "></path><path fill="rgb(17,12,68)" stroke="rgb(17,12,68)" stroke-width="1" opacity="1" d="M 40.5 106 L 41 128.5 L 42 129.5 L 40 128.5 L 40.5 106 Z "></path><path fill="rgb(17,12,68)" stroke="rgb(17,12,68)" stroke-width="1" opacity="1" d="M 88.5 106 L 92 116.5 L 91 116.5 L 88 108.5 L 88.5 106 Z "></path><path fill="rgb(17,12,68)" stroke="rgb(17,12,68)" stroke-width="1" opacity="1" d="M 139.5 107 L 140 129.5 L 139 129.5 L 139.5 107 Z "></path><path fill="rgb(17,12,68)" stroke="rgb(17,12,68)" stroke-width="1" opacity="1" d="M 23.5 108 L 27 110.5 L 25.5 111 L 23.5 108 Z "></path><path fill="rgb(17,12,68)" stroke="rgb(17,12,68)" stroke-width="1" opacity="1" d="M 83.5 108 L 84 110.5 L 82 111.5 L 83.5 108 Z "></path><path fill="rgb(17,12,68)" stroke="rgb(17,12,68)" stroke-width="1" opacity="1" d="M 163.5 109 L 165 111.5 L 163 110.5 L 163.5 109 Z "></path><path fill="rgb(17,12,68)" stroke="rgb(17,12,68)" stroke-width="1" opacity="1" d="M 152.5 110 L 151.5 112 L 149 111.5 L 152.5 110 Z "></path><path fill="rgb(17,12,68)" stroke="rgb(17,12,68)" stroke-width="1" opacity="1" d="M 18.5 111 L 23 114.5 L 21.5 115 L 18.5 111 Z "></path><path fill="rgb(17,12,68)" stroke="rgb(17,12,68)" stroke-width="1" opacity="1" d="M 52.5 111 L 56 111.5 L 52.5 112 L 52.5 111 Z "></path><path fill="rgb(17,12,68)" stroke="rgb(17,12,68)" stroke-width="1" opacity="1" d="M 30.5 112 L 36 116.5 L 32.5 114 L 30.5 112 Z "></path><path fill="rgb(17,12,68)" stroke="rgb(17,12,68)" stroke-width="1" opacity="1" d="M 157.5 112 L 156.5 114 L 157.5 112 Z "></path><path fill="rgb(17,12,68)" stroke="rgb(17,12,68)" stroke-width="1" opacity="1" d="M 166.5 113 L 170 115.5 L 168.5 116 L 166.5 113 Z "></path><path fill="rgb(17,12,68)" stroke="rgb(17,12,68)" stroke-width="1" opacity="1" d="M 177.5 113 L 181 115.5 L 180.5 117 L 180 115 L 177.5 113 Z "></path><path fill="rgb(17,12,68)" stroke="rgb(17,12,68)" stroke-width="1" opacity="1" d="M 154.5 114 L 157 118.5 L 156 118.5 L 154.5 114 Z "></path><path fill="rgb(17,12,68)" stroke="rgb(17,12,68)" stroke-width="1" opacity="1" d="M 46 116 L 48 116.5 L 46 117.5 L 46 116 Z "></path><path fill="rgb(17,12,68)" stroke="rgb(17,12,68)" stroke-width="1" opacity="1" d="M 69.5 116 L 70 129.5 L 69 129.5 L 69.5 116 Z "></path><path fill="rgb(17,12,68)" stroke="rgb(17,12,68)" stroke-width="1" opacity="1" d="M 121 116 L 123 116.5 L 122 117.5 L 122 125 L 133 125.5 L 121 126 L 121 116 Z "></path><path fill="rgb(17,12,68)" stroke="rgb(17,12,68)" stroke-width="1" opacity="1" d="M 27.5 117 L 31 119.5 L 30.5 121 L 28.5 118 L 27.5 117 Z "></path><path fill="rgb(17,12,68)" stroke="rgb(17,12,68)" stroke-width="1" opacity="1" d="M 74.5 117 L 77 120.5 L 75 119.5 L 74.5 117 Z "></path><path fill="rgb(17,12,68)" stroke="rgb(17,12,68)" stroke-width="1" opacity="1" d="M 106.5 117 L 107 119.5 L 105.5 122 L 105 120.5 L 106.5 117 Z "></path><path fill="rgb(17,12,68)" stroke="rgb(17,12,68)" stroke-width="1" opacity="1" d="M 149.5 117 L 153 122.5 L 152 122.5 L 149.5 117 Z "></path><path fill="rgb(17,12,68)" stroke="rgb(17,12,68)" stroke-width="1" opacity="1" d="M 100.5 119 L 101 120.5 L 99.5 124 L 98 120.5 L 100 120.5 L 100.5 119 Z "></path><path fill="rgb(17,12,68)" stroke="rgb(17,12,68)" stroke-width="1" opacity="1" d="M 175.5 119 L 177 122.5 L 175.5 125 L 175 123.5 L 176 120.5 L 175.5 119 Z "></path><path fill="rgb(17,12,68)" stroke="rgb(17,12,68)" stroke-width="1" opacity="1" d="M 82.5 120 L 84 123.5 L 83 123.5 L 82.5 120 Z "></path><path fill="rgb(17,12,68)" stroke="rgb(17,12,68)" stroke-width="1" opacity="1" d="M 157.5 120 L 160 125.5 L 159 125.5 L 157.5 120 Z "></path><path fill="rgb(17,12,68)" stroke="rgb(17,12,68)" stroke-width="1" opacity="1" d="M 182.5 122 L 182 123.5 L 181.5 125 L 181 123.5 L 182.5 122 Z "></path><path fill="rgb(17,12,68)" stroke="rgb(17,12,68)" stroke-width="1" opacity="1" d="M 30.5 123 L 28.5 126 L 24 125.5 Q 29.1 126 30.5 123 Z "></path><path fill="rgb(17,12,68)" stroke="rgb(17,12,68)" stroke-width="1" opacity="1" d="M 16.5 124 L 17 126.5 L 16 126.5 L 16.5 124 Z "></path><path fill="rgb(17,12,68)" stroke="rgb(17,12,68)" stroke-width="1" opacity="1" d="M 20.5 124 L 23 125.5 L 21.5 125 L 20.5 124 Z "></path><path fill="rgb(17,12,68)" stroke="rgb(17,12,68)" stroke-width="1" opacity="1" d="M 46.5 124 L 47.5 125 L 58 125.5 L 46 126 L 46.5 124 Z "></path><path fill="rgb(17,12,68)" stroke="rgb(17,12,68)" stroke-width="1" opacity="1" d="M 166.5 124 L 174 125.5 L 168.5 126 L 166.5 124 Z "></path><path fill="rgb(17,12,68)" stroke="rgb(17,12,68)" stroke-width="1" opacity="1" d="M 162.5 126 L 164.5 129 L 166 129.5 L 164.5 130 Q 160.9 128.9 162.5 126 Z "></path><path fill="rgb(17,12,68)" stroke="rgb(17,12,68)" stroke-width="1" opacity="1" d="M 180.5 126 L 178.5 129 L 180.5 126 Z "></path><path fill="rgb(17,12,68)" stroke="rgb(17,12,68)" stroke-width="1" opacity="1" d="M 154.5 127 L 156 129.5 L 154 128.5 L 154.5 127 Z "></path><path fill="rgb(17,12,68)" stroke="rgb(17,12,68)" stroke-width="1" opacity="1" d="M 32.5 128 L 31.5 130 L 30 129.5 L 32.5 128 Z "></path><path fill="rgb(17,12,68)" stroke="rgb(17,12,68)" stroke-width="1" opacity="1" d="M 58.5 129 L 57.5 131 L 51 130.5 L 58.5 129 Z "></path><path fill="rgb(17,12,68)" stroke="rgb(17,12,68)" stroke-width="1" opacity="1" d="M 64.5 129 L 65.5 131 L 64.5 129 Z "></path><path fill="rgb(17,12,68)" stroke="rgb(17,12,68)" stroke-width="1" opacity="1" d="M 45.5 130 L 49 130.5 L 45.5 131 L 45.5 130 Z "></path><path fill="rgb(17,12,68)" stroke="rgb(17,12,68)" stroke-width="1" opacity="1" d="M 118.5 130 L 125 130.5 L 118.5 131 L 118.5 130 Z "></path><path fill="rgb(17,12,68)" stroke="rgb(17,12,68)" stroke-width="1" opacity="1" d="M 129.5 130 L 133 130.5 L 129.5 131 L 129.5 130 Z "></path><path fill="rgb(17,12,68)" stroke="rgb(17,12,68)" stroke-width="1" opacity="1" d="M 168.5 130 L 171 130.5 L 168.5 131 L 168.5 130 Z "></path><path fill="rgb(17,12,68)" stroke="rgb(17,12,68)" stroke-width="1" opacity="1" d="M 2.5 146 L 3.5 147 L 197 147.5 L 2 148 L 2.5 146 Z "></path><path fill="rgb(17,12,68)" stroke="rgb(17,12,68)" stroke-width="1" opacity="1" d="M 2.5 176 L 197 176.5 L 2.5 177 L 2.5 176 Z "></path><path fill="rgb(17,12,68)" stroke="rgb(17,12,68)" stroke-width="1" opacity="1" d="M 2.5 178 L 3 195.5 L 2 195.5 L 2.5 178 Z "></path><path fill="rgb(34,20,107)" stroke="rgb(34,20,107)" stroke-width="1" opacity="1" d="M 3 2 L 9.5 3 L 10.5 2 L 196 2 L 196 18.5 L 195.5 19 L 3 19 L 3 2 Z "></path><path fill="rgb(34,20,107)" stroke="rgb(34,20,107)" stroke-width="1" opacity="1" d="M 3.5 50 L 4.5 51 L 196 51 L 196 147 L 3 147 L 3.5 50 Z M 35 55 L 33 56 L 33 58 L 31 58 L 31 88 L 33 89 Q 37 90 38 87 L 38 59 L 37 58 L 37 57 L 35 55 Z M 81 55 L 76 56 L 76 58 L 75 57 L 73 59 L 73 86 Q 75 91 86 89 L 85 88 L 87 88 L 93 87 Q 97 85 94 84 L 96 84 L 98 81 L 97 79 L 99 78 L 99 67 L 97 64 Q 98 60 96 61 Q 94 57 93 60 L 93 59 Q 88 55 81 55 Z M 106 55 L 103 58 L 103 88 L 105 87 L 104 89 L 106 89 Q 107 92 109 88 L 108 83 L 110 83 L 110 64 L 108 63 L 108 62 L 108 60 L 110 60 Q 111 57 108 58 L 108 56 L 106 55 Z M 164 55 L 161 59 L 161 74 L 159 74 L 159 73 L 153 60 Q 151 55 145 56 Q 142 57 144 59 L 144 87 L 143 88 Q 144 90 148 89 L 149 87 L 150 69 L 160 88 L 166 89 L 165 88 Q 166 85 168 87 L 168 61 L 169 60 L 168 58 L 167 58 L 167 57 L 164 55 Z M 46 56 L 43 59 L 43 88 L 45 87 L 44 89 L 48 89 L 49 88 L 50 68 L 51 71 L 53 70 L 52 72 L 55 79 Q 56 81 58 79 L 57 81 L 59 86 L 63 89 L 68 88 Q 70 87 69 82 L 69 80 L 69 65 L 68 64 L 69 59 Q 68 55 64 56 L 62 59 L 62 61 L 62 75 L 61 74 Q 60 71 59 73 L 59 72 L 55 64 L 53 64 L 54 62 L 52 62 L 53 60 Q 52 55 46 56 Z M 124 56 L 124 58 L 123 57 L 121 60 L 122 63 L 121 62 L 118 69 L 119 71 L 117 71 L 118 74 L 117 73 L 113 82 L 114 85 L 112 85 L 112 89 L 118 89 L 117 87 L 119 87 L 118 84 L 120 84 L 120 83 L 122 81 L 132 81 L 133 88 Q 135 90 140 89 L 140 85 L 139 85 L 139 84 L 137 77 L 135 77 L 136 74 L 135 74 L 135 73 L 132 65 Q 133 62 131 63 L 131 62 L 130 58 L 129 58 L 129 57 L 124 56 Z M 143 60 L 142 70 L 143 70 L 143 60 Z M 143 78 L 142 82 L 143 82 L 143 78 Z M 46 96 L 43 98 L 40 101 L 40 116 L 39 117 L 40 119 L 40 130 L 43 131 L 59 131 L 60 130 Q 61 126 59 125 L 47 125 L 47 117 L 56 117 L 58 115 L 57 111 L 47 111 L 47 104 L 57 105 Q 60 104 59 100 L 58 98 L 46 98 L 46 96 Z M 27 97 L 22 99 Q 19 98 20 101 Q 16 102 19 104 L 18 103 L 17 112 L 30 121 L 29 125 L 23 125 Q 22 122 18 123 Q 15 124 16 128 L 18 127 L 17 129 L 21 131 Q 30 133 34 129 L 37 124 L 36 117 L 24 108 L 26 104 Q 31 103 34 106 Q 36 105 34 104 L 35 101 L 34 101 L 34 99 L 32 100 L 31 98 L 27 97 Z M 67 97 L 64 100 L 65 102 L 65 116 L 64 104 L 63 118 L 65 118 L 65 121 L 64 120 L 63 120 L 64 128 L 65 122 L 65 129 Q 63 130 66 131 Q 69 132 68 130 L 70 130 Q 72 129 70 128 L 70 119 L 72 118 L 72 117 L 73 117 L 75 120 L 77 120 L 76 122 L 78 121 L 77 123 L 77 126 L 81 131 L 87 130 L 83 122 Q 84 117 81 118 L 80 116 L 84 111 Q 86 101 80 99 L 77 100 L 77 99 L 67 97 Z M 125 97 Q 123 100 118 98 L 115 101 L 115 111 L 115 113 L 116 118 L 115 130 L 118 129 L 117 131 L 134 131 L 135 127 L 134 125 L 124 125 Q 121 124 122 120 L 123 117 L 131 117 L 131 116 L 133 116 Q 134 112 132 111 L 122 111 L 122 107 L 127 104 L 133 105 L 135 102 L 134 98 L 126 98 L 125 97 Z M 172 97 L 169 98 L 169 100 L 167 99 Q 164 100 166 102 L 163 103 L 164 106 L 163 105 L 162 107 Q 165 108 163 110 Q 162 113 165 112 L 167 115 L 169 114 L 169 116 L 171 115 L 171 117 L 173 116 L 173 118 L 175 117 L 174 119 L 175 122 Q 178 123 174 125 Q 168 126 166 123 L 161 125 L 159 122 L 158 122 L 158 121 L 157 118 L 155 114 L 157 114 L 158 111 Q 160 112 159 110 L 159 108 Q 161 109 160 107 L 158 107 L 159 104 L 156 100 L 155 101 L 155 100 L 152 98 L 142 98 Q 142 101 139 100 L 139 130 Q 140 132 144 131 L 145 130 L 145 117 L 149 116 L 152 124 L 154 123 L 153 125 L 154 130 L 160 131 L 161 128 L 164 129 L 165 128 L 164 130 L 166 130 L 167 130 L 168 131 L 176 131 L 176 129 L 178 130 L 177 129 L 179 129 Q 181 130 180 128 L 180 126 L 182 126 L 183 124 Q 184 118 181 116 L 177 112 L 175 113 L 175 111 L 173 112 L 173 111 L 172 110 Q 170 107 168 109 L 171 104 Q 175 103 177 105 L 179 104 Q 183 105 181 100 L 175 98 L 172 97 Z M 87 98 L 87 100 L 86 102 Q 85 104 88 103 L 87 105 L 89 110 L 89 114 L 92 115 L 91 118 L 93 117 L 92 119 L 95 129 Q 96 132 102 131 L 104 129 L 105 125 L 104 123 L 106 123 L 109 113 Q 112 111 110 110 L 111 108 L 110 106 L 113 104 L 112 101 Q 113 96 109 98 L 105 103 L 106 107 L 104 107 L 101 119 L 100 120 L 99 119 L 98 119 L 98 118 Q 99 115 97 116 L 97 115 L 96 110 L 95 110 L 95 109 L 93 101 Q 92 97 87 98 Z "></path><path fill="rgb(34,20,107)" stroke="rgb(34,20,107)" stroke-width="1" opacity="1" d="M 87.5 61 L 87.5 63 L 91 65.5 L 92.5 70 L 94 69.5 L 93 73.5 L 93.5 75 Q 90.9 74.2 92 77.5 L 91 79.5 Q 93.3 80.8 90.5 82 L 88.5 82 L 80 83 L 80 64.5 L 81.5 63 L 87.5 61 Z "></path><path fill="rgb(34,20,107)" stroke="rgb(34,20,107)" stroke-width="1" opacity="1" d="M 108.5 64 L 109 80.5 L 108 80.5 L 108.5 64 Z "></path><path fill="rgb(34,20,107)" stroke="rgb(34,20,107)" stroke-width="1" opacity="1" d="M 125.5 66 L 128.5 73 L 130 72.5 L 129 75 L 123 75 L 123 72.5 L 122.5 71 L 124 71.5 L 126 67.5 L 125.5 66 Z "></path><path fill="rgb(34,20,107)" stroke="rgb(34,20,107)" stroke-width="1" opacity="1" d="M 71.5 104 L 76.5 105 L 78 104.5 L 75.5 111 Q 73.3 110.3 74 112.5 L 72.5 112 L 70 110.5 Q 68.8 105.3 71.5 104 Z "></path><path fill="rgb(34,20,107)" stroke="rgb(34,20,107)" stroke-width="1" opacity="1" d="M 146.5 104 Q 151.1 103.4 152.5 106 L 154 105.5 L 152 111 L 145 111 L 145 105.5 L 146.5 104 Z "></path><path fill="rgb(34,20,107)" stroke="rgb(34,20,107)" stroke-width="1" opacity="1" d="M 3 177 L 195.5 177 L 196 177.5 L 196 195 L 3.5 195 L 3 194.5 L 3 177 Z "></path><path fill="rgb(204,203,226)" stroke="rgb(204,203,226)" stroke-width="1" opacity="1" d="M 1.5 21 L 2 48.5 L 1 48.5 L 1.5 21 Z "></path><path fill="rgb(204,203,226)" stroke="rgb(204,203,226)" stroke-width="1" opacity="1" d="M 45.5 57 L 49 57.5 L 45 58 L 44.5 87 L 44 58.5 L 45.5 57 Z "></path><path fill="rgb(204,203,226)" stroke="rgb(204,203,226)" stroke-width="1" opacity="1" d="M 64.5 57 L 67 57.5 L 64 58 L 63.5 80 L 63 58.5 L 64.5 57 Z "></path><path fill="rgb(204,203,226)" stroke="rgb(204,203,226)" stroke-width="1" opacity="1" d="M 76.5 57 L 86 57.5 L 76.5 58 L 76.5 57 Z "></path><path fill="rgb(204,203,226)" stroke="rgb(204,203,226)" stroke-width="1" opacity="1" d="M 145.5 57 L 148 57.5 L 145.5 58 L 145.5 57 Z "></path><path fill="rgb(204,203,226)" stroke="rgb(204,203,226)" stroke-width="1" opacity="1" d="M 163.5 57 L 166 57.5 L 163.5 58 L 163.5 57 Z "></path><path fill="rgb(204,203,226)" stroke="rgb(204,203,226)" stroke-width="1" opacity="1" d="M 104.5 58 L 105 86.5 L 104 86.5 L 104.5 58 Z "></path><path fill="rgb(204,203,226)" stroke="rgb(204,203,226)" stroke-width="1" opacity="1" d="M 80.5 60 L 85 60.5 L 80.5 61 L 80.5 60 Z "></path><path fill="rgb(204,203,226)" stroke="rgb(204,203,226)" stroke-width="1" opacity="1" d="M 93.5 60 L 94.5 62 L 93.5 60 Z "></path><path fill="rgb(204,203,226)" stroke="rgb(204,203,226)" stroke-width="1" opacity="1" d="M 125.5 61 L 126.5 63 L 125.5 61 Z "></path><path fill="rgb(204,203,226)" stroke="rgb(204,203,226)" stroke-width="1" opacity="1" d="M 121.5 76 L 131 76.5 L 121.5 77 L 121.5 76 Z "></path><path fill="rgb(204,203,226)" stroke="rgb(204,203,226)" stroke-width="1" opacity="1" d="M 66.5 99 L 69 99.5 L 66.5 100 L 66.5 99 Z "></path><path fill="rgb(204,203,226)" stroke="rgb(204,203,226)" stroke-width="1" opacity="1" d="M 87.5 99 L 90 99.5 L 87.5 100 L 87.5 99 Z "></path><path fill="rgb(204,203,226)" stroke="rgb(204,203,226)" stroke-width="1" opacity="1" d="M 109.5 99 L 112 99.5 L 109.5 100 L 109.5 99 Z "></path><path fill="rgb(204,203,226)" stroke="rgb(204,203,226)" stroke-width="1" opacity="1" d="M 178.5 100 L 180 103.5 L 179 103.5 L 178.5 100 Z "></path><path fill="rgb(204,203,226)" stroke="rgb(204,203,226)" stroke-width="1" opacity="1" d="M 20.5 101 L 19.5 103 L 20.5 101 Z "></path><path fill="rgb(204,203,226)" stroke="rgb(204,203,226)" stroke-width="1" opacity="1" d="M 155.5 101 L 156.5 103 L 155.5 101 Z "></path><path fill="rgb(204,203,226)" stroke="rgb(204,203,226)" stroke-width="1" opacity="1" d="M 46.5 102 L 58 102.5 L 46.5 103 L 46.5 102 Z "></path><path fill="rgb(204,203,226)" stroke="rgb(204,203,226)" stroke-width="1" opacity="1" d="M 69.5 102 L 74 102.5 L 69 103 L 68.5 113 L 68 103.5 L 69.5 102 Z "></path><path fill="rgb(204,203,226)" stroke="rgb(204,203,226)" stroke-width="1" opacity="1" d="M 121.5 102 L 133 102.5 L 121.5 103 L 121.5 102 Z "></path><path fill="rgb(204,203,226)" stroke="rgb(204,203,226)" stroke-width="1" opacity="1" d="M 144.5 102 L 149 102.5 L 144.5 103 L 144.5 102 Z "></path><path fill="rgb(204,203,226)" stroke="rgb(204,203,226)" stroke-width="1" opacity="1" d="M 68.5 116 L 69 128.5 L 68 128.5 L 68.5 116 Z "></path><path fill="rgb(254,253,249)" stroke="rgb(254,253,249)" stroke-width="1" opacity="1" d="M 0.5 20 L 1 48.5 L 0 48.5 L 0.5 20 Z "></path><path fill="rgb(254,253,249)" stroke="rgb(254,253,249)" stroke-width="1" opacity="1" d="M 145 59 Q 149.1 57.7 148 61 Q 143.9 62.3 145 59 Z "></path><path fill="rgb(254,253,249)" stroke="rgb(254,253,249)" stroke-width="1" opacity="1" d="M 126.5 60 L 127.5 62 L 126.5 60 Z "></path><path fill="rgb(254,253,249)" stroke="rgb(254,253,249)" stroke-width="1" opacity="1" d="M 164.5 82 L 165 84.5 L 163 83.5 L 164.5 82 Z "></path><path fill="rgb(254,253,249)" stroke="rgb(254,253,249)" stroke-width="1" opacity="1" d="M 63.5 83 L 64.5 85 Q 61.7 85.7 63.5 83 Z "></path><path fill="rgb(254,253,249)" stroke="rgb(254,253,249)" stroke-width="1" opacity="1" d="M 142 101 L 144 101.5 L 142.5 108 Q 140.3 107.3 141 103.5 L 142 101 Z "></path><path fill="rgb(254,253,249)" stroke="rgb(254,253,249)" stroke-width="1" opacity="1" d="M 141 114 Q 144.3 112.9 143 117 Q 139.7 118.1 141 114 Z "></path><path fill="rgb(254,253,249)" stroke="rgb(254,253,249)" stroke-width="1" opacity="1" d="M 176.5 116 Q 178.8 115.3 178 117.5 L 176.5 116 Z "></path><path fill="rgb(254,253,249)" stroke="rgb(254,253,249)" stroke-width="1" opacity="1" d="M 142.5 120 L 143 123.5 L 141.5 126 L 141 121.5 L 142.5 120 Z "></path><path fill="rgb(254,253,249)" stroke="rgb(254,253,249)" stroke-width="1" opacity="1" d="M 98.5 126 Q 100.8 125.3 100 127.5 L 98.5 126 Z "></path><path fill="rgb(254,253,249)" stroke="rgb(254,253,249)" stroke-width="1" opacity="1" d="M 0.5 148 L 1 152.5 L 0 152.5 L 0.5 148 Z "></path><path fill="rgb(254,253,249)" stroke="rgb(254,253,249)" stroke-width="1" opacity="1" d="M 0.5 154 L 1 175.5 L 0 175.5 L 0.5 154 Z "></path><path fill="rgb(252,249,254)" stroke="rgb(252,249,254)" stroke-width="1" opacity="1" d="M 2.5 0 L 196 0.5 L 2.5 1 L 2.5 0 Z "></path><path fill="rgb(252,249,254)" stroke="rgb(252,249,254)" stroke-width="1" opacity="1" d="M 0.5 51 L 1 53.5 L 0 53.5 L 0.5 51 Z "></path><path fill="rgb(252,249,254)" stroke="rgb(252,249,254)" stroke-width="1" opacity="1" d="M 33.5 57 L 36 58.5 L 34.5 58 L 33.5 57 Z "></path><path fill="rgb(252,249,254)" stroke="rgb(252,249,254)" stroke-width="1" opacity="1" d="M 105.5 57 L 108 58.5 L 106.5 58 L 105.5 57 Z "></path><path fill="rgb(252,249,254)" stroke="rgb(252,249,254)" stroke-width="1" opacity="1" d="M 125 57 L 129 58.5 Q 129.7 61.1 127 60 L 126.5 58 L 123 60 L 123.5 58 L 125 58.5 L 125 57 Z "></path><path fill="rgb(252,249,254)" stroke="rgb(252,249,254)" stroke-width="1" opacity="1" d="M 49.5 58 L 50.5 60 L 49.5 58 Z "></path><path fill="rgb(252,249,254)" stroke="rgb(252,249,254)" stroke-width="1" opacity="1" d="M 66.5 58 L 67 87 L 65 86.5 L 66 85.5 L 66.5 58 Z "></path><path fill="rgb(252,249,254)" stroke="rgb(252,249,254)" stroke-width="1" opacity="1" d="M 75 58 L 77 58.5 L 75.5 61 L 75 58 Z "></path><path fill="rgb(252,249,254)" stroke="rgb(252,249,254)" stroke-width="1" opacity="1" d="M 163.5 58 Q 167.3 56.8 166 60.5 L 164.5 64 Q 161.3 62.3 165 60.5 Q 165.8 58.3 163.5 59 L 163.5 58 Z "></path><path fill="rgb(252,249,254)" stroke="rgb(252,249,254)" stroke-width="1" opacity="1" d="M 91.5 59 L 92.5 61 L 90 60.5 L 91.5 59 Z "></path><path fill="rgb(252,249,254)" stroke="rgb(252,249,254)" stroke-width="1" opacity="1" d="M 77.5 60 L 78.5 62 L 77.5 60 Z "></path><path fill="rgb(252,249,254)" stroke="rgb(252,249,254)" stroke-width="1" opacity="1" d="M 85.5 60 L 89 60.5 L 85.5 61 L 85.5 60 Z "></path><path fill="rgb(252,249,254)" stroke="rgb(252,249,254)" stroke-width="1" opacity="1" d="M 75.5 62 L 79 64.5 L 79 79.5 L 78 80.5 L 78.5 82 Q 75.8 80.8 78 79.5 L 78 64.5 L 76 64 L 75.5 80 L 75.5 62 Z "></path><path fill="rgb(252,249,254)" stroke="rgb(252,249,254)" stroke-width="1" opacity="1" d="M 144.5 62 L 146 64.5 L 145 64.5 L 144.5 62 Z "></path><path fill="rgb(252,249,254)" stroke="rgb(252,249,254)" stroke-width="1" opacity="1" d="M 91.5 63 L 93.5 66 L 91.5 63 Z "></path><path fill="rgb(252,249,254)" stroke="rgb(252,249,254)" stroke-width="1" opacity="1" d="M 124.5 63 L 123.5 65 L 124.5 63 Z "></path><path fill="rgb(252,249,254)" stroke="rgb(252,249,254)" stroke-width="1" opacity="1" d="M 121.5 64 L 122 66 L 124 66.5 L 122.5 67 L 121.5 64 Z "></path><path fill="rgb(252,249,254)" stroke="rgb(252,249,254)" stroke-width="1" opacity="1" d="M 151.5 65 L 151.5 67 Q 153.8 67.8 153 65.5 L 154 65.5 L 155 67.5 L 152.5 68 L 150 66.5 L 151.5 65 Z "></path><path fill="rgb(252,249,254)" stroke="rgb(252,249,254)" stroke-width="1" opacity="1" d="M 51.5 67 L 53 69.5 L 52 69.5 L 51.5 67 Z "></path><path fill="rgb(252,249,254)" stroke="rgb(252,249,254)" stroke-width="1" opacity="1" d="M 96.5 67 L 98 68.5 L 97.5 71 L 96 69.5 L 96.5 67 Z "></path><path fill="rgb(252,249,254)" stroke="rgb(252,249,254)" stroke-width="1" opacity="1" d="M 146.5 69 L 145.5 71 L 146.5 69 Z "></path><path fill="rgb(252,249,254)" stroke="rgb(252,249,254)" stroke-width="1" opacity="1" d="M 152.5 69 L 153.5 71 Q 150.7 71.7 152.5 69 Z "></path><path fill="rgb(252,249,254)" stroke="rgb(252,249,254)" stroke-width="1" opacity="1" d="M 95.5 72 L 95.5 75 Q 92.5 73.5 95.5 72 Z "></path><path fill="rgb(252,249,254)" stroke="rgb(252,249,254)" stroke-width="1" opacity="1" d="M 118.5 72 L 120.5 73 L 122 72.5 L 119.5 74 L 118.5 72 Z "></path><path fill="rgb(252,249,254)" stroke="rgb(252,249,254)" stroke-width="1" opacity="1" d="M 164.5 72 Q 167.3 73.3 165 74.5 L 164.5 76 L 164 74.5 L 164.5 72 Z "></path><path fill="rgb(252,249,254)" stroke="rgb(252,249,254)" stroke-width="1" opacity="1" d="M 57.5 73 Q 59.8 72.3 59 74.5 L 57.5 73 Z "></path><path fill="rgb(252,249,254)" stroke="rgb(252,249,254)" stroke-width="1" opacity="1" d="M 55.5 74 L 56.5 76 L 55.5 74 Z "></path><path fill="rgb(252,249,254)" stroke="rgb(252,249,254)" stroke-width="1" opacity="1" d="M 157.5 74 Q 159.8 73.3 159 75.5 L 161 78.5 L 157 79.5 L 157.5 77 L 159 77.5 L 157.5 74 Z "></path><path fill="rgb(252,249,254)" stroke="rgb(252,249,254)" stroke-width="1" opacity="1" d="M 93.5 77 L 95 79.5 L 93 80.5 L 93 78.5 L 93.5 77 Z "></path><path fill="rgb(252,249,254)" stroke="rgb(252,249,254)" stroke-width="1" opacity="1" d="M 124.5 77 L 129 77.5 L 125.5 79 L 124.5 77 Z "></path><path fill="rgb(252,249,254)" stroke="rgb(252,249,254)" stroke-width="1" opacity="1" d="M 131.5 77 L 132.5 79 L 131.5 77 Z "></path><path fill="rgb(252,249,254)" stroke="rgb(252,249,254)" stroke-width="1" opacity="1" d="M 60.5 79 L 62 81.5 L 59.5 82 L 60 80.5 L 60.5 79 Z "></path><path fill="rgb(252,249,254)" stroke="rgb(252,249,254)" stroke-width="1" opacity="1" d="M 161.5 80 L 160.5 82 L 161.5 80 Z "></path><path fill="rgb(252,249,254)" stroke="rgb(252,249,254)" stroke-width="1" opacity="1" d="M 75.5 81 Q 78.3 82.3 76 83.5 L 76.5 85 Q 78.3 81.3 80 84.5 L 77 85.5 Q 77.7 88.1 75 87 L 75.5 81 Z "></path><path fill="rgb(252,249,254)" stroke="rgb(252,249,254)" stroke-width="1" opacity="1" d="M 95.5 81 L 92.5 85 L 95.5 81 Z "></path><path fill="rgb(252,249,254)" stroke="rgb(252,249,254)" stroke-width="1" opacity="1" d="M 105 81 L 107 81.5 L 105 82.5 L 105 81 Z "></path><path fill="rgb(252,249,254)" stroke="rgb(252,249,254)" stroke-width="1" opacity="1" d="M 47.5 83 L 48 85.5 L 47.5 87 L 46.5 85 L 45 85.5 L 47.5 83 Z "></path><path fill="rgb(252,249,254)" stroke="rgb(252,249,254)" stroke-width="1" opacity="1" d="M 60.5 83 L 63 84.5 L 62.5 86 L 64 86.5 L 62.5 87 L 60.5 83 Z "></path><path fill="rgb(252,249,254)" stroke="rgb(252,249,254)" stroke-width="1" opacity="1" d="M 116.5 83 L 117.5 85 L 116.5 83 Z "></path><path fill="rgb(252,249,254)" stroke="rgb(252,249,254)" stroke-width="1" opacity="1" d="M 137.5 83 L 136 85.5 L 135.5 87 L 134 84.5 Q 135.8 86.1 137.5 83 Z "></path><path fill="rgb(252,249,254)" stroke="rgb(252,249,254)" stroke-width="1" opacity="1" d="M 35.5 84 L 36 86.5 L 35 86.5 L 35.5 84 Z "></path><path fill="rgb(252,249,254)" stroke="rgb(252,249,254)" stroke-width="1" opacity="1" d="M 161.5 84 Q 163 87.5 164.5 85 Q 166.8 84.3 166 86.5 L 163.5 87 Q 161.3 87.8 162 85.5 L 161.5 84 Z "></path><path fill="rgb(252,249,254)" stroke="rgb(252,249,254)" stroke-width="1" opacity="1" d="M 115.5 85 L 116.5 87 L 114.5 87 L 113 86.5 L 115.5 85 Z "></path><path fill="rgb(252,249,254)" stroke="rgb(252,249,254)" stroke-width="1" opacity="1" d="M 25.5 99 Q 30.9 97.1 30 100.5 L 28.5 100 L 26.5 101 L 25.5 99 Z "></path><path fill="rgb(252,249,254)" stroke="rgb(252,249,254)" stroke-width="1" opacity="1" d="M 170.5 99 Q 175.5 98.5 176 102.5 L 173.5 101 Q 169.7 100.7 170.5 99 Z "></path><path fill="rgb(252,249,254)" stroke="rgb(252,249,254)" stroke-width="1" opacity="1" d="M 32.5 100 L 34 101.5 L 33.5 104 L 32 102.5 L 32.5 100 Z "></path><path fill="rgb(252,249,254)" stroke="rgb(252,249,254)" stroke-width="1" opacity="1" d="M 45.5 100 L 48 101.5 L 46.5 101 L 45.5 100 Z "></path><path fill="rgb(252,249,254)" stroke="rgb(252,249,254)" stroke-width="1" opacity="1" d="M 65.5 100 L 66.5 102 L 67.5 100 L 69 102.5 L 66.5 103 L 65 101.5 L 65.5 100 Z "></path><path fill="rgb(252,249,254)" stroke="rgb(252,249,254)" stroke-width="1" opacity="1" d="M 71.5 100 L 72.5 102 L 71.5 100 Z "></path><path fill="rgb(252,249,254)" stroke="rgb(252,249,254)" stroke-width="1" opacity="1" d="M 176.5 100 L 179 101.5 L 178.5 104 L 176.5 100 Z "></path><path fill="rgb(252,249,254)" stroke="rgb(252,249,254)" stroke-width="1" opacity="1" d="M 169.5 101 L 169 102.5 L 168.5 104 L 168 102.5 L 169.5 101 Z "></path><path fill="rgb(252,249,254)" stroke="rgb(252,249,254)" stroke-width="1" opacity="1" d="M 20.5 102 L 21 104.5 L 20 104.5 L 20.5 102 Z "></path><path fill="rgb(252,249,254)" stroke="rgb(252,249,254)" stroke-width="1" opacity="1" d="M 42.5 102 L 43.5 104 L 42.5 102 Z "></path><path fill="rgb(252,249,254)" stroke="rgb(252,249,254)" stroke-width="1" opacity="1" d="M 80.5 102 Q 83.8 103.7 83 109.5 L 82 109.5 Q 82.5 103.7 80.5 102 Z "></path><path fill="rgb(252,249,254)" stroke="rgb(252,249,254)" stroke-width="1" opacity="1" d="M 108.5 102 L 107.5 104 L 108.5 102 Z "></path><path fill="rgb(252,249,254)" stroke="rgb(252,249,254)" stroke-width="1" opacity="1" d="M 166.5 102 L 165.5 104 L 166.5 102 Z "></path><path fill="rgb(252,249,254)" stroke="rgb(252,249,254)" stroke-width="1" opacity="1" d="M 89.5 103 L 90.5 107 Q 86 105 89.5 103 Z "></path><path fill="rgb(252,249,254)" stroke="rgb(252,249,254)" stroke-width="1" opacity="1" d="M 110.5 103 L 109.5 105 L 110.5 103 Z "></path><path fill="rgb(252,249,254)" stroke="rgb(252,249,254)" stroke-width="1" opacity="1" d="M 117.5 103 L 118 107.5 L 117 107.5 L 117.5 103 Z "></path><path fill="rgb(252,249,254)" stroke="rgb(252,249,254)" stroke-width="1" opacity="1" d="M 120.5 103 L 121 112 L 131 112.5 L 121 113.5 L 121 115.5 L 121 126 L 132.5 126 L 133 129 L 131 128.5 L 131.5 127 L 121.5 127 L 120 125.5 L 120 115.5 L 121 114.5 L 120 111.5 L 120.5 103 Z "></path><path fill="rgb(252,249,254)" stroke="rgb(252,249,254)" stroke-width="1" opacity="1" d="M 152.5 103 L 153.5 105 L 152.5 103 Z "></path><path fill="rgb(252,249,254)" stroke="rgb(252,249,254)" stroke-width="1" opacity="1" d="M 18.5 106 L 19.5 108 L 22 106.5 L 20 108.5 L 22.5 113 L 24 113.5 L 22.5 114 L 19 110.5 Q 21.5 109 18 107.5 L 18.5 106 Z "></path><path fill="rgb(252,249,254)" stroke="rgb(252,249,254)" stroke-width="1" opacity="1" d="M 166.5 106 L 167.5 108 L 166.5 106 Z "></path><path fill="rgb(252,249,254)" stroke="rgb(252,249,254)" stroke-width="1" opacity="1" d="M 92.5 107 L 94 109.5 L 93 109.5 L 92.5 107 Z "></path><path fill="rgb(252,249,254)" stroke="rgb(252,249,254)" stroke-width="1" opacity="1" d="M 106.5 107 L 107.5 109 L 109 108.5 Q 109.8 110.8 107.5 110 Q 106.3 112.3 105 109.5 L 106.5 107 Z "></path><path fill="rgb(252,249,254)" stroke="rgb(252,249,254)" stroke-width="1" opacity="1" d="M 154.5 109 L 156.5 112 L 155.5 111 L 153 112.5 Q 156.1 110.7 154.5 109 Z "></path><path fill="rgb(252,249,254)" stroke="rgb(252,249,254)" stroke-width="1" opacity="1" d="M 168.5 109 L 170.5 112 L 168.5 109 Z "></path><path fill="rgb(252,249,254)" stroke="rgb(252,249,254)" stroke-width="1" opacity="1" d="M 25.5 111 L 26.5 113 L 28.5 113 L 30 113.5 L 28.5 114 L 27.5 113 L 25 114.5 L 25 112.5 L 25.5 111 Z "></path><path fill="rgb(252,249,254)" stroke="rgb(252,249,254)" stroke-width="1" opacity="1" d="M 81.5 111 L 80.5 113 L 78.5 114 L 77.5 112 L 79.5 112 L 81.5 111 Z "></path><path fill="rgb(252,249,254)" stroke="rgb(252,249,254)" stroke-width="1" opacity="1" d="M 165.5 111 L 168 112.5 L 166.5 113 L 165.5 111 Z "></path><path fill="rgb(252,249,254)" stroke="rgb(252,249,254)" stroke-width="1" opacity="1" d="M 45.5 112 L 56 112.5 L 45.5 113 L 42.5 115 L 42.5 114 L 45.5 112 Z "></path><path fill="rgb(252,249,254)" stroke="rgb(252,249,254)" stroke-width="1" opacity="1" d="M 65.5 112 L 67.5 115 L 65 114.5 L 65.5 112 Z "></path><path fill="rgb(252,249,254)" stroke="rgb(252,249,254)" stroke-width="1" opacity="1" d="M 72 113 Q 75.8 111.5 75 114.5 L 73 114.5 Q 73.8 116.8 71.5 116 L 69 115.5 Q 68.3 113.3 70.5 114 L 72 114.5 L 72 113 Z "></path><path fill="rgb(252,249,254)" stroke="rgb(252,249,254)" stroke-width="1" opacity="1" d="M 105.5 113 L 106.5 115 L 105.5 113 Z "></path><path fill="rgb(252,249,254)" stroke="rgb(252,249,254)" stroke-width="1" opacity="1" d="M 148.5 113 L 149 115 L 146.5 116 L 148.5 113 Z "></path><path fill="rgb(252,249,254)" stroke="rgb(252,249,254)" stroke-width="1" opacity="1" d="M 171.5 113 L 172 115.5 L 171 115.5 L 171.5 113 Z "></path><path fill="rgb(252,249,254)" stroke="rgb(252,249,254)" stroke-width="1" opacity="1" d="M 31.5 114 L 32.5 116 L 31.5 114 Z "></path><path fill="rgb(252,249,254)" stroke="rgb(252,249,254)" stroke-width="1" opacity="1" d="M 117.5 114 L 118 128.5 L 117 128.5 L 117.5 114 Z "></path><path fill="rgb(252,249,254)" stroke="rgb(252,249,254)" stroke-width="1" opacity="1" d="M 152.5 114 L 151.5 118 Q 148 116 152.5 114 Z "></path><path fill="rgb(252,249,254)" stroke="rgb(252,249,254)" stroke-width="1" opacity="1" d="M 77.5 115 L 76.5 117 L 77.5 115 Z "></path><path fill="rgb(252,249,254)" stroke="rgb(252,249,254)" stroke-width="1" opacity="1" d="M 92.5 115 Q 94.8 119.2 97 117.5 L 95.5 119 L 93 118.5 L 94 117.5 L 92.5 115 Z "></path><path fill="rgb(252,249,254)" stroke="rgb(252,249,254)" stroke-width="1" opacity="1" d="M 43.5 116 L 45 118.5 L 43 119.5 L 43 117.5 L 43.5 116 Z "></path><path fill="rgb(252,249,254)" stroke="rgb(252,249,254)" stroke-width="1" opacity="1" d="M 174.5 116 L 175.5 118 L 174.5 116 Z "></path><path fill="rgb(252,249,254)" stroke="rgb(252,249,254)" stroke-width="1" opacity="1" d="M 179.5 116 L 178.5 118 L 179.5 116 Z "></path><path fill="rgb(252,249,254)" stroke="rgb(252,249,254)" stroke-width="1" opacity="1" d="M 76.5 118 L 77.5 120 L 76.5 118 Z "></path><path fill="rgb(252,249,254)" stroke="rgb(252,249,254)" stroke-width="1" opacity="1" d="M 102.5 118 L 103 119.5 L 101.5 122 L 101 120.5 L 102.5 118 Z "></path><path fill="rgb(252,249,254)" stroke="rgb(252,249,254)" stroke-width="1" opacity="1" d="M 180.5 118 L 179.5 120 L 180.5 118 Z "></path><path fill="rgb(252,249,254)" stroke="rgb(252,249,254)" stroke-width="1" opacity="1" d="M 35.5 120 L 36 121.5 L 34 122.5 L 35.5 120 Z "></path><path fill="rgb(252,249,254)" stroke="rgb(252,249,254)" stroke-width="1" opacity="1" d="M 43.5 121 L 45 121.5 L 42.5 123 L 43.5 121 Z "></path><path fill="rgb(252,249,254)" stroke="rgb(252,249,254)" stroke-width="1" opacity="1" d="M 177.5 121 L 179 123.5 L 177 122.5 L 177.5 121 Z "></path><path fill="rgb(252,249,254)" stroke="rgb(252,249,254)" stroke-width="1" opacity="1" d="M 81.5 122 L 83 124.5 L 82 124.5 L 81.5 123 L 80 123.5 L 81.5 122 Z "></path><path fill="rgb(252,249,254)" stroke="rgb(252,249,254)" stroke-width="1" opacity="1" d="M 103.5 122 L 104 123.5 L 99.5 126 L 98.5 124 L 100.5 124 Q 104 125 103.5 122 Z "></path><path fill="rgb(252,249,254)" stroke="rgb(252,249,254)" stroke-width="1" opacity="1" d="M 18.5 124 L 21 125.5 L 19.5 126 L 18.5 124 Z "></path><path fill="rgb(252,249,254)" stroke="rgb(252,249,254)" stroke-width="1" opacity="1" d="M 154.5 124 L 155.5 126 L 154.5 124 Z "></path><path fill="rgb(252,249,254)" stroke="rgb(252,249,254)" stroke-width="1" opacity="1" d="M 163.5 124 L 164 126.5 L 163 126.5 L 163.5 124 Z "></path><path fill="rgb(252,249,254)" stroke="rgb(252,249,254)" stroke-width="1" opacity="1" d="M 30.5 125 Q 32.3 128.1 34 126.5 L 32.5 128 L 30.5 125 Z "></path><path fill="rgb(252,249,254)" stroke="rgb(252,249,254)" stroke-width="1" opacity="1" d="M 175.5 125 L 176.5 127 L 175.5 125 Z "></path><path fill="rgb(252,249,254)" stroke="rgb(252,249,254)" stroke-width="1" opacity="1" d="M 44.5 126 L 58 126.5 L 44 127.5 L 44.5 129 Q 40.8 130 42 127 L 44.5 126 Z "></path><path fill="rgb(252,249,254)" stroke="rgb(252,249,254)" stroke-width="1" opacity="1" d="M 168.5 126 Q 171.5 127.5 168.5 129 L 168.5 126 Z "></path><path fill="rgb(252,249,254)" stroke="rgb(252,249,254)" stroke-width="1" opacity="1" d="M 173.5 126 L 177 128.5 L 175.5 129 Q 174 126.5 172.5 130 L 170 129.5 L 174 127.5 L 173.5 126 Z "></path><path fill="rgb(252,249,254)" stroke="rgb(252,249,254)" stroke-width="1" opacity="1" d="M 166.5 127 L 167 129 L 165 128.5 L 166.5 127 Z "></path><path fill="rgb(252,249,254)" stroke="rgb(252,249,254)" stroke-width="1" opacity="1" d="M 23.5 128 L 27 129.5 L 24.5 130 L 23.5 128 Z "></path><path fill="rgb(252,249,254)" stroke="rgb(252,249,254)" stroke-width="1" opacity="1" d="M 65.5 128 L 68 128.5 L 65.5 129 L 65.5 128 Z "></path><path fill="rgb(254,252,254)" stroke="rgb(254,252,254)" stroke-width="1" opacity="1" d="M 0.5 4 L 1 15.5 L 0 15.5 L 0.5 4 Z "></path><path fill="rgb(254,252,254)" stroke="rgb(254,252,254)" stroke-width="1" opacity="1" d="M 0.5 17 L 1 19.5 L 0 19.5 L 0.5 17 Z "></path><path fill="rgb(254,252,254)" stroke="rgb(254,252,254)" stroke-width="1" opacity="1" d="M 0.5 54 L 1 144.5 L 0 144.5 L 0.5 54 Z "></path><path fill="rgb(254,252,254)" stroke="rgb(254,252,254)" stroke-width="1" opacity="1" d="M 33 58 L 36 59.5 L 36 63.5 L 36 79.5 L 35 80.5 L 35 84.5 L 34.5 87 Q 31.7 85.8 34 84.5 L 33 82.5 L 33 61.5 L 33 59.5 L 33 58 Z "></path><path fill="rgb(254,252,254)" stroke="rgb(254,252,254)" stroke-width="1" opacity="1" d="M 45 58 Q 50.6 57 52 61.5 L 54 65.5 L 53.5 67 Q 55.8 66.3 55 68.5 L 58 72.5 Q 55.8 73.8 58.5 75 Q 61.1 74.2 60 77.5 L 63.5 82 L 64 58 L 66 58.5 L 66 85.5 Q 64.8 88.3 63.5 86 L 62 85.5 L 65 84.5 Q 63.7 81.7 62.5 84 L 60 82.5 L 62 81.5 L 60.5 79 L 59.5 81 L 58.5 78 L 56 76.5 L 57 75.5 L 54 72.5 L 53 68.5 L 48.5 62 L 48 82.5 L 47 83.5 L 47 85.5 Q 47.8 87.8 45.5 87 L 45 84.5 L 45 64.5 L 46 63.5 L 45 58 Z "></path><path fill="rgb(254,252,254)" stroke="rgb(254,252,254)" stroke-width="1" opacity="1" d="M 77.5 58 L 82.5 59 L 84.5 58 L 87.5 59 L 90.5 59 L 96 63.5 L 95 65.5 L 97 66.5 L 96 67.5 L 98 71.5 Q 97.8 82.3 90.5 86 L 83.5 87 L 81.5 86 L 78.5 87 Q 76.3 87.8 77 85.5 L 76 83.5 L 76 79.5 L 76 64.5 L 77.5 64 L 77.5 63 L 75 61.5 L 77.5 58 Z M 80 59 L 79 61 L 79 63 L 78 65 L 78 80 L 78 84 L 80 85 L 82 84 L 84 84 L 87 85 L 92 82 L 95 74 Q 93 72 94 68 L 94 66 L 91 63 L 89 60 L 81 60 L 80 59 Z M 97 71 L 95 73 L 97 73 L 97 71 Z "></path><path fill="rgb(254,252,254)" stroke="rgb(254,252,254)" stroke-width="1" opacity="1" d="M 105 58 L 108 59.5 L 108 61.5 L 107 63.5 L 108 64.5 L 108 84 L 106 84.5 L 108 85.5 Q 106.5 88.5 105 85.5 L 107 81.5 L 105 81 L 105 61.5 L 106 60.5 L 105 58 Z "></path><path fill="rgb(254,252,254)" stroke="rgb(254,252,254)" stroke-width="1" opacity="1" d="M 124.5 58 L 127 58.5 L 129 61.5 L 132 68.5 L 131.5 70 Q 134.1 69.2 133 72.5 L 138 85.5 L 136 86.5 L 131.5 79 L 127.5 78 L 124.5 79 L 119.5 78 L 119 81 L 117 81.5 L 118 83.5 L 115.5 87 L 114 84.5 L 117 79.5 L 117 77.5 Q 116.3 75.3 118.5 76 L 118 74.5 L 123 60 L 125 59.5 L 124.5 58 Z M 126 61 L 125 63 Q 121 64 124 66 L 123 66 L 123 68 Q 124 71 122 70 L 122 72 L 119 74 L 121 74 L 120 76 Q 119 78 124 77 L 130 77 Q 133 78 131 73 L 129 71 L 130 68 L 128 67 L 126 61 Z "></path><path fill="rgb(254,252,254)" stroke="rgb(254,252,254)" stroke-width="1" opacity="1" d="M 145.5 58 L 145 59.5 Q 144.2 62.5 148 61 L 147 58.5 L 148.5 59 Q 150.8 58.3 150 60.5 L 158 73.5 Q 155.5 75 159 76.5 L 162.5 82 L 164 81.5 L 163 79.5 L 164 77.5 L 163 76.5 L 163 63.5 L 163 61.5 Q 162 57.8 165 59 L 166 61.5 L 166 63.5 L 166 72.5 L 165 73.5 L 166 78.5 L 166 80.5 L 165.5 85 L 164.5 82 Q 161.8 83.3 164 84.5 L 165 86.5 L 160 84.5 L 153 71.5 Q 155.3 70.3 152.5 69 L 151 68.5 L 153 67.5 L 149 64.5 L 147.5 62 L 146 69.5 L 147 70.5 L 147 81.5 L 147 83.5 L 145.5 87 L 144 83.5 L 144 81.5 L 144 63.5 L 145 62.5 L 144 59.5 L 145.5 58 Z "></path><path fill="rgb(254,252,254)" stroke="rgb(254,252,254)" stroke-width="1" opacity="1" d="M 173.5 99 L 176.5 101 L 178 100.5 L 176.5 103 Q 175 99.5 173.5 102 L 169.5 103 L 168 102.5 L 166 106.5 L 170.5 112 L 179 115 L 181 120.5 L 180 122.5 Q 182.5 124 179 125.5 L 177.5 128 L 174.5 129 L 172.5 129 L 168.5 128 L 167 128.5 L 166.5 127 L 164 128 L 164.5 125 L 169.5 128 L 177 124.5 L 178 121.5 L 174.5 116 Q 170.8 117.3 172 113.5 L 171 113.5 L 170.5 115 L 168 114 L 166.5 111 Q 164.3 111.8 165 109.5 L 164 106.5 Q 162.9 103.2 165.5 104 L 166.5 101 L 171.5 100 L 173.5 101 L 173.5 99 Z M 177 116 L 178 118 L 179 118 L 177 116 Z "></path><path fill="rgb(254,252,254)" stroke="rgb(254,252,254)" stroke-width="1" opacity="1" d="M 23.5 100 L 26.5 101 L 28.5 100 L 30.5 100 L 34 102.5 Q 32.3 105.8 30.5 102 Q 23.5 100.5 22 104.5 L 21 106.5 L 25.5 113 Q 27 110.5 28.5 114 L 34 116 L 35 121.5 L 34 124.5 L 30.5 129 L 28.5 129 L 23.5 128 L 21.5 129 L 18 126.5 L 18.5 125 Q 21.8 127.7 28.5 127 L 31 126 L 33 121.5 L 32 119.5 L 32.5 118 L 26 116 L 25.5 114 L 24 114.5 Q 24.8 112.3 22.5 113 L 19 109.5 L 19 107.5 L 19.5 103 L 20.5 105 L 21 101 L 23.5 100 Z "></path><path fill="rgb(254,252,254)" stroke="rgb(254,252,254)" stroke-width="1" opacity="1" d="M 43.5 100 L 46.5 101 L 47.5 100 L 57 100 L 56.5 102 L 48.5 102 L 46.5 102 L 45 102.5 L 45 113 L 56 113.5 Q 55.3 115.8 51.5 115 L 49.5 115 L 46.5 114 L 44 118.5 L 45 121 L 43 121.5 L 45 122.5 L 45 124.5 L 44 126.5 L 58 127.5 Q 55 130.5 47.5 129 L 43.5 127 Q 41.3 127.8 42 125.5 L 42 121.5 Q 40.5 114.5 43.5 115 L 43.5 114 L 42 113.5 L 42 111.5 L 42 103.5 L 43 102.5 Q 40.8 101.2 43.5 100 Z "></path><path fill="rgb(254,252,254)" stroke="rgb(254,252,254)" stroke-width="1" opacity="1" d="M 66.5 100 L 67.5 102 L 68 100 L 71.5 101 L 76.5 100 L 80 101 Q 82.7 103.6 82 110.5 L 77 114.5 Q 76.3 116.8 78.5 116 L 82 121.5 L 82 123.5 L 84 127.5 L 81.5 129 L 78 119.5 L 74.5 116 Q 72.3 116.8 73 114.5 L 75 114.5 L 76.5 112 L 78 112.5 L 79 105.5 L 76.5 102 L 74.5 102 L 72.5 101 L 68 102 L 68 113 L 72 113 L 72 114.5 L 70 115.5 L 70.5 114 Q 68.3 113.3 69 115.5 L 68 116.5 L 68 128 L 65 127.5 L 65 117 L 67 116.5 L 65 115.5 L 66 110.5 L 65 102.5 L 66.5 100 Z "></path><path fill="rgb(254,252,254)" stroke="rgb(254,252,254)" stroke-width="1" opacity="1" d="M 88.5 100 L 91 100.5 L 93 106.5 L 93 108.5 L 98 121.5 L 97.5 123 L 99 123.5 L 98 126.5 L 99.5 128 L 100 125 L 103 125.5 L 101 126.5 Q 103.3 127.7 100.5 129 L 98.5 128 L 97 128.5 L 96 125.5 L 96.5 124 Q 93.5 124.9 95 120.5 L 93 117.5 Q 95.5 116 92 114.5 L 91 110.5 L 91.5 109 Q 89.3 109.8 90 107.5 L 88 103.5 L 88.5 100 Z "></path><path fill="rgb(254,252,254)" stroke="rgb(254,252,254)" stroke-width="1" opacity="1" d="M 108 100 Q 112.1 98.3 111 102.5 L 109 106.5 L 107 109.5 L 108 111.5 L 103 124 Q 100.3 125.1 101 122.5 L 103 119.5 L 104 112.5 L 107 107.5 L 107 105.5 L 109 102.5 L 108 100 Z "></path><path fill="rgb(254,252,254)" stroke="rgb(254,252,254)" stroke-width="1" opacity="1" d="M 118 100 L 124.5 101 L 127.5 100 Q 132.9 98.1 132 101.5 L 129.5 102 L 121.5 102 L 120 103.5 L 120 111.5 L 121.5 113 L 131 113.5 L 128.5 115 L 126.5 115 L 124.5 114 L 122.5 115 Q 121.3 112.8 120 115.5 L 120 125.5 L 121.5 127 L 132 127.5 L 130.5 129 L 118 129 L 117 108.5 L 118 103.5 L 118 101.5 L 118 100 Z M 120 112 Q 118 115 121 114 L 120 112 Z "></path><path fill="rgb(254,252,254)" stroke="rgb(254,252,254)" stroke-width="1" opacity="1" d="M 142.5 100 L 144.5 101 L 148.5 100 L 150.5 100 L 157 103.5 L 158 109.5 L 154.5 114 L 152 114.5 L 157 121.5 L 156 123.5 L 158 123.5 L 159 127.5 L 156 129 L 155 126.5 Q 157.5 125 154 123.5 L 150.5 116 L 146.5 115 L 144 116 L 144 127.5 L 142.5 129 L 140 127.5 L 140 103.5 L 141 102.5 L 140.5 101 L 142.5 100 Z M 142 101 L 141 104 Q 140 107 143 108 L 144 102 L 142 101 Z M 147 101 L 144 102 L 144 113 L 146 114 L 148 113 L 148 115 Q 150 116 149 113 L 153 112 L 155 110 L 155 108 L 154 105 L 147 101 Z M 141 114 Q 140 118 143 117 Q 144 113 141 114 Z M 143 120 L 141 122 L 142 126 L 143 124 L 143 120 Z "></path><path fill="rgb(254,252,254)" stroke="rgb(254,252,254)" stroke-width="1" opacity="1" d="M 0.5 176 L 1 192.5 L 0 192.5 L 0.5 176 Z "></path><path fill="rgb(39,22,91)" stroke="rgb(39,22,91)" stroke-width="1" opacity="1" d="M 7.5 2 L 10 2.5 L 7.5 3 L 7.5 2 Z "></path><path fill="rgb(39,22,91)" stroke="rgb(39,22,91)" stroke-width="1" opacity="1" d="M 2.5 20 L 197 20.5 L 2.5 21 L 2.5 20 Z "></path><path fill="rgb(39,22,91)" stroke="rgb(39,22,91)" stroke-width="1" opacity="1" d="M 4.5 50 L 196 50.5 L 4.5 51 L 4.5 50 Z "></path><path fill="rgb(39,22,91)" stroke="rgb(39,22,91)" stroke-width="1" opacity="1" d="M 34.5 55 L 37 56.5 L 35.5 56 L 34.5 55 Z "></path><path fill="rgb(39,22,91)" stroke="rgb(39,22,91)" stroke-width="1" opacity="1" d="M 80.5 55 L 83 55.5 L 80.5 56 L 80.5 55 Z "></path><path fill="rgb(39,22,91)" stroke="rgb(39,22,91)" stroke-width="1" opacity="1" d="M 163.5 55 L 165 55.5 L 163 56 L 162.5 58 L 162 56.5 L 163.5 55 Z "></path><path fill="rgb(39,22,91)" stroke="rgb(39,22,91)" stroke-width="1" opacity="1" d="M 32.5 56 L 31.5 58 L 32.5 56 Z "></path><path fill="rgb(39,22,91)" stroke="rgb(39,22,91)" stroke-width="1" opacity="1" d="M 75.5 56 L 74 60.5 L 73.5 62 L 73 58.5 L 75.5 56 Z "></path><path fill="rgb(39,22,91)" stroke="rgb(39,22,91)" stroke-width="1" opacity="1" d="M 166.5 56 L 167.5 58 L 166.5 56 Z "></path><path fill="rgb(39,22,91)" stroke="rgb(39,22,91)" stroke-width="1" opacity="1" d="M 67.5 57 Q 69.8 57.8 69 61.5 L 68 63.5 L 69 64.5 L 69 79.5 L 69 81.5 L 68.5 87 L 67 85.5 L 67.5 57 Z "></path><path fill="rgb(39,22,91)" stroke="rgb(39,22,91)" stroke-width="1" opacity="1" d="M 150.5 57 L 153 60.5 L 152 60.5 L 150.5 57 Z "></path><path fill="rgb(39,22,91)" stroke="rgb(39,22,91)" stroke-width="1" opacity="1" d="M 80 62 L 84 62.5 L 80.5 64 L 80 62 Z "></path><path fill="rgb(39,22,91)" stroke="rgb(39,22,91)" stroke-width="1" opacity="1" d="M 142.5 62 L 143 65.5 L 142 65.5 L 142.5 62 Z "></path><path fill="rgb(39,22,91)" stroke="rgb(39,22,91)" stroke-width="1" opacity="1" d="M 73 63 L 75 63.5 L 74 64.5 L 74 81.5 L 74 83.5 L 75 85.5 L 73 86 L 73 63 Z "></path><path fill="rgb(39,22,91)" stroke="rgb(39,22,91)" stroke-width="1" opacity="1" d="M 109.5 63 L 110 82.5 L 109 82.5 L 109.5 63 Z "></path><path fill="rgb(39,22,91)" stroke="rgb(39,22,91)" stroke-width="1" opacity="1" d="M 48.5 65 L 50 67.5 L 49 68.5 L 48.5 88 L 48.5 65 Z "></path><path fill="rgb(39,22,91)" stroke="rgb(39,22,91)" stroke-width="1" opacity="1" d="M 92.5 69 L 93.5 71 L 92.5 69 Z "></path><path fill="rgb(39,22,91)" stroke="rgb(39,22,91)" stroke-width="1" opacity="1" d="M 115.5 74 L 116.5 76 Q 113.7 76.7 115.5 74 Z "></path><path fill="rgb(39,22,91)" stroke="rgb(39,22,91)" stroke-width="1" opacity="1" d="M 155.5 79 L 156.5 81 L 155.5 79 Z "></path><path fill="rgb(39,22,91)" stroke="rgb(39,22,91)" stroke-width="1" opacity="1" d="M 119.5 80 L 120.5 82 L 119.5 80 Z "></path><path fill="rgb(39,22,91)" stroke="rgb(39,22,91)" stroke-width="1" opacity="1" d="M 59.5 85 L 63 87.5 L 62.5 89 L 62 87 L 59.5 85 Z "></path><path fill="rgb(39,22,91)" stroke="rgb(39,22,91)" stroke-width="1" opacity="1" d="M 37.5 86 L 36.5 88 L 37.5 86 Z "></path><path fill="rgb(39,22,91)" stroke="rgb(39,22,91)" stroke-width="1" opacity="1" d="M 133.5 86 L 135 88.5 L 133 87.5 L 133.5 86 Z "></path><path fill="rgb(39,22,91)" stroke="rgb(39,22,91)" stroke-width="1" opacity="1" d="M 142.5 86 L 143.5 88 L 142.5 86 Z "></path><path fill="rgb(39,22,91)" stroke="rgb(39,22,91)" stroke-width="1" opacity="1" d="M 31.5 87 L 34 88.5 L 32.5 89 L 31.5 87 Z "></path><path fill="rgb(39,22,91)" stroke="rgb(39,22,91)" stroke-width="1" opacity="1" d="M 43.5 87 L 44.5 89 L 43.5 87 Z "></path><path fill="rgb(39,22,91)" stroke="rgb(39,22,91)" stroke-width="1" opacity="1" d="M 66.5 87 L 65.5 89 L 66.5 87 Z "></path><path fill="rgb(39,22,91)" stroke="rgb(39,22,91)" stroke-width="1" opacity="1" d="M 75.5 87 L 76.5 89 L 75.5 87 Z "></path><path fill="rgb(39,22,91)" stroke="rgb(39,22,91)" stroke-width="1" opacity="1" d="M 86.5 87 L 85.5 89 L 86.5 87 Z "></path><path fill="rgb(39,22,91)" stroke="rgb(39,22,91)" stroke-width="1" opacity="1" d="M 103.5 87 L 104.5 89 L 103.5 87 Z "></path><path fill="rgb(39,22,91)" stroke="rgb(39,22,91)" stroke-width="1" opacity="1" d="M 112.5 87 L 113.5 89 Q 110.7 89.7 112.5 87 Z "></path><path fill="rgb(39,22,91)" stroke="rgb(39,22,91)" stroke-width="1" opacity="1" d="M 45.5 96 L 46 98 L 44 97.5 L 45.5 96 Z "></path><path fill="rgb(39,22,91)" stroke="rgb(39,22,91)" stroke-width="1" opacity="1" d="M 26.5 97 L 29 97.5 Q 26.9 100.8 26.5 97 Z "></path><path fill="rgb(39,22,91)" stroke="rgb(39,22,91)" stroke-width="1" opacity="1" d="M 171.5 97 L 174 97.5 Q 174.8 99.8 172.5 99 L 171.5 97 Z "></path><path fill="rgb(39,22,91)" stroke="rgb(39,22,91)" stroke-width="1" opacity="1" d="M 64.5 100 L 64 101.5 L 63.5 103 L 63 101.5 L 64.5 100 Z "></path><path fill="rgb(39,22,91)" stroke="rgb(39,22,91)" stroke-width="1" opacity="1" d="M 115 100 L 117 100.5 L 117 129.5 L 117.5 131 L 115 130 L 116 117.5 L 115 112.5 L 115 110.5 L 115 100 Z "></path><path fill="rgb(39,22,91)" stroke="rgb(39,22,91)" stroke-width="1" opacity="1" d="M 133.5 102 L 134 103.5 L 130.5 105 L 130.5 104 Q 134 105 133.5 102 Z "></path><path fill="rgb(39,22,91)" stroke="rgb(39,22,91)" stroke-width="1" opacity="1" d="M 169.5 103 L 168.5 105 L 169.5 103 Z "></path><path fill="rgb(39,22,91)" stroke="rgb(39,22,91)" stroke-width="1" opacity="1" d="M 53.5 104 L 57 104.5 L 53.5 105 L 53.5 104 Z "></path><path fill="rgb(39,22,91)" stroke="rgb(39,22,91)" stroke-width="1" opacity="1" d="M 63.5 104 L 64 115.5 L 65 116.5 L 63 117.5 L 63 115.5 L 63.5 104 Z "></path><path fill="rgb(39,22,91)" stroke="rgb(39,22,91)" stroke-width="1" opacity="1" d="M 73.5 104 L 76 104.5 L 73.5 105 L 73.5 104 Z "></path><path fill="rgb(39,22,91)" stroke="rgb(39,22,91)" stroke-width="1" opacity="1" d="M 122 104 L 126 104.5 L 122.5 106 L 122 104 Z "></path><path fill="rgb(39,22,91)" stroke="rgb(39,22,91)" stroke-width="1" opacity="1" d="M 144 104 L 146 104.5 L 145 111 Q 150.2 109.3 149 113 L 144 113 L 144 104 Z "></path><path fill="rgb(39,22,91)" stroke="rgb(39,22,91)" stroke-width="1" opacity="1" d="M 163.5 104 L 162.5 106 L 163.5 104 Z "></path><path fill="rgb(39,22,91)" stroke="rgb(39,22,91)" stroke-width="1" opacity="1" d="M 158.5 105 L 159.5 107 L 158.5 105 Z "></path><path fill="rgb(39,22,91)" stroke="rgb(39,22,91)" stroke-width="1" opacity="1" d="M 22.5 106 Q 24.8 105.3 24 107.5 L 25.5 110 L 22.5 106 Z "></path><path fill="rgb(39,22,91)" stroke="rgb(39,22,91)" stroke-width="1" opacity="1" d="M 17 110 L 19 110.5 L 18.5 113 L 17 110 Z "></path><path fill="rgb(39,22,91)" stroke="rgb(39,22,91)" stroke-width="1" opacity="1" d="M 110.5 110 L 109.5 112 L 108 111.5 L 110.5 110 Z "></path><path fill="rgb(39,22,91)" stroke="rgb(39,22,91)" stroke-width="1" opacity="1" d="M 56.5 111 L 58 114.5 L 56 115.5 L 57 113.5 L 56.5 111 Z "></path><path fill="rgb(39,22,91)" stroke="rgb(39,22,91)" stroke-width="1" opacity="1" d="M 70.5 111 L 73 112.5 L 70 113 L 70.5 111 Z "></path><path fill="rgb(39,22,91)" stroke="rgb(39,22,91)" stroke-width="1" opacity="1" d="M 81.5 112 L 83 112.5 L 80 114.5 L 81.5 112 Z "></path><path fill="rgb(39,22,91)" stroke="rgb(39,22,91)" stroke-width="1" opacity="1" d="M 165.5 112 L 167 114.5 L 165 113.5 L 165.5 112 Z "></path><path fill="rgb(39,22,91)" stroke="rgb(39,22,91)" stroke-width="1" opacity="1" d="M 70 116 Q 73 115 72 118 Q 69 119 70 116 Z "></path><path fill="rgb(39,22,91)" stroke="rgb(39,22,91)" stroke-width="1" opacity="1" d="M 144 116 L 148 116.5 L 145 117 L 144.5 130 L 144 116 Z "></path><path fill="rgb(39,22,91)" stroke="rgb(39,22,91)" stroke-width="1" opacity="1" d="M 28.5 118 L 29.5 120 L 28.5 118 Z "></path><path fill="rgb(39,22,91)" stroke="rgb(39,22,91)" stroke-width="1" opacity="1" d="M 82.5 118 L 83 120 L 81 119.5 L 82.5 118 Z "></path><path fill="rgb(39,22,91)" stroke="rgb(39,22,91)" stroke-width="1" opacity="1" d="M 63.5 119 L 65 121.5 L 63.5 128 L 63.5 119 Z "></path><path fill="rgb(39,22,91)" stroke="rgb(39,22,91)" stroke-width="1" opacity="1" d="M 99.5 120 L 100.5 122 L 99.5 120 Z "></path><path fill="rgb(39,22,91)" stroke="rgb(39,22,91)" stroke-width="1" opacity="1" d="M 93 123 L 95 123.5 L 93 124.5 L 93 123 Z "></path><path fill="rgb(39,22,91)" stroke="rgb(39,22,91)" stroke-width="1" opacity="1" d="M 77 124 L 79 124.5 L 78.5 127 L 77 124 Z "></path><path fill="rgb(39,22,91)" stroke="rgb(39,22,91)" stroke-width="1" opacity="1" d="M 161.5 124 Q 164.5 125.5 161.5 127 Q 159.3 127.8 160 125.5 L 161.5 124 Z "></path><path fill="rgb(39,22,91)" stroke="rgb(39,22,91)" stroke-width="1" opacity="1" d="M 58.5 125 L 59.5 127 Q 56.7 127.7 58.5 125 Z "></path><path fill="rgb(39,22,91)" stroke="rgb(39,22,91)" stroke-width="1" opacity="1" d="M 34.5 126 L 35 127.5 L 33 128.5 L 34.5 126 Z "></path><path fill="rgb(39,22,91)" stroke="rgb(39,22,91)" stroke-width="1" opacity="1" d="M 59.5 128 L 60 129.5 L 58 130.5 L 59.5 128 Z "></path><path fill="rgb(39,22,91)" stroke="rgb(39,22,91)" stroke-width="1" opacity="1" d="M 86.5 128 L 87 130 L 84.5 131 L 86.5 128 Z "></path><path fill="rgb(39,22,91)" stroke="rgb(39,22,91)" stroke-width="1" opacity="1" d="M 79.5 129 L 82 130.5 L 80.5 131 L 79.5 129 Z "></path><path fill="rgb(10,1,86)" stroke="rgb(10,1,86)" stroke-width="1" opacity="1" d="M 196.5 2 L 197 18.5 L 196 18.5 L 196.5 2 Z "></path><path fill="rgb(10,1,86)" stroke="rgb(10,1,86)" stroke-width="1" opacity="1" d="M 196.5 50 L 197 146.5 L 196 146.5 L 196.5 50 Z "></path><path fill="rgb(10,1,86)" stroke="rgb(10,1,86)" stroke-width="1" opacity="1" d="M 63.5 56 L 62.5 58 L 63.5 56 Z "></path><path fill="rgb(10,1,86)" stroke="rgb(10,1,86)" stroke-width="1" opacity="1" d="M 161.5 60 L 162 62.5 L 161 62.5 L 161.5 60 Z "></path><path fill="rgb(10,1,86)" stroke="rgb(10,1,86)" stroke-width="1" opacity="1" d="M 2.5 63 L 3 145.5 L 2 145.5 L 2.5 63 Z "></path><path fill="rgb(10,1,86)" stroke="rgb(10,1,86)" stroke-width="1" opacity="1" d="M 37.5 64 L 38 79.5 L 37 79.5 L 37.5 64 Z "></path><path fill="rgb(10,1,86)" stroke="rgb(10,1,86)" stroke-width="1" opacity="1" d="M 50.5 68 L 51.5 70 L 50.5 68 Z "></path><path fill="rgb(10,1,86)" stroke="rgb(10,1,86)" stroke-width="1" opacity="1" d="M 161.5 70 L 162 73.5 L 161 73.5 L 161.5 70 Z "></path><path fill="rgb(10,1,86)" stroke="rgb(10,1,86)" stroke-width="1" opacity="1" d="M 43.5 72 L 44 78.5 L 43 78.5 L 43.5 72 Z "></path><path fill="rgb(10,1,86)" stroke="rgb(10,1,86)" stroke-width="1" opacity="1" d="M 167.5 73 L 168 75.5 L 167 75.5 L 167.5 73 Z "></path><path fill="rgb(10,1,86)" stroke="rgb(10,1,86)" stroke-width="1" opacity="1" d="M 129.5 74 L 128.5 76 L 124 75.5 L 129.5 74 Z "></path><path fill="rgb(10,1,86)" stroke="rgb(10,1,86)" stroke-width="1" opacity="1" d="M 148.5 78 L 149 80.5 L 148 80.5 L 148.5 78 Z "></path><path fill="rgb(10,1,86)" stroke="rgb(10,1,86)" stroke-width="1" opacity="1" d="M 167.5 79 L 168 81.5 L 167 81.5 L 167.5 79 Z "></path><path fill="rgb(10,1,86)" stroke="rgb(10,1,86)" stroke-width="1" opacity="1" d="M 122.5 80 L 125 80.5 L 122.5 81 L 122.5 80 Z "></path><path fill="rgb(10,1,86)" stroke="rgb(10,1,86)" stroke-width="1" opacity="1" d="M 37.5 83 L 38 85.5 L 37 85.5 L 37.5 83 Z "></path><path fill="rgb(10,1,86)" stroke="rgb(10,1,86)" stroke-width="1" opacity="1" d="M 43.5 84 L 44 86.5 L 43 86.5 L 43.5 84 Z "></path><path fill="rgb(10,1,86)" stroke="rgb(10,1,86)" stroke-width="1" opacity="1" d="M 42.5 98 L 40.5 101 L 42.5 98 Z "></path><path fill="rgb(10,1,86)" stroke="rgb(10,1,86)" stroke-width="1" opacity="1" d="M 65.5 98 L 64.5 100 L 65.5 98 Z "></path><path fill="rgb(10,1,86)" stroke="rgb(10,1,86)" stroke-width="1" opacity="1" d="M 139.5 102 L 140 106.5 L 139 106.5 L 139.5 102 Z "></path><path fill="rgb(10,1,86)" stroke="rgb(10,1,86)" stroke-width="1" opacity="1" d="M 170.5 103 L 169.5 105 L 170.5 103 Z "></path><path fill="rgb(10,1,86)" stroke="rgb(10,1,86)" stroke-width="1" opacity="1" d="M 34.5 104 L 33.5 106 L 34.5 104 Z "></path><path fill="rgb(10,1,86)" stroke="rgb(10,1,86)" stroke-width="1" opacity="1" d="M 17.5 107 L 18 109.5 L 17 109.5 L 17.5 107 Z "></path><path fill="rgb(10,1,86)" stroke="rgb(10,1,86)" stroke-width="1" opacity="1" d="M 131.5 111 L 133 113.5 L 132 113.5 L 131.5 111 Z "></path><path fill="rgb(10,1,86)" stroke="rgb(10,1,86)" stroke-width="1" opacity="1" d="M 48.5 116 L 53 116.5 L 48.5 117 L 48.5 116 Z "></path><path fill="rgb(10,1,86)" stroke="rgb(10,1,86)" stroke-width="1" opacity="1" d="M 125.5 116 L 129 116.5 L 125.5 117 L 125.5 116 Z "></path><path fill="rgb(10,1,86)" stroke="rgb(10,1,86)" stroke-width="1" opacity="1" d="M 36.5 118 L 37 120.5 L 36 120.5 L 36.5 118 Z "></path><path fill="rgb(10,1,86)" stroke="rgb(10,1,86)" stroke-width="1" opacity="1" d="M 17.5 123 L 20 123.5 L 17.5 124 L 17.5 123 Z "></path><path fill="rgb(10,1,86)" stroke="rgb(10,1,86)" stroke-width="1" opacity="1" d="M 134.5 126 L 135 128.5 L 134 128.5 L 134.5 126 Z "></path><path fill="rgb(10,1,86)" stroke="rgb(10,1,86)" stroke-width="1" opacity="1" d="M 97.5 130 L 102 130.5 L 97.5 131 L 97.5 130 Z "></path><path fill="rgb(10,1,86)" stroke="rgb(10,1,86)" stroke-width="1" opacity="1" d="M 125.5 130 L 129 130.5 L 125.5 131 L 125.5 130 Z "></path><path fill="rgb(10,1,86)" stroke="rgb(10,1,86)" stroke-width="1" opacity="1" d="M 156.5 130 L 160 130.5 L 156.5 131 L 156.5 130 Z "></path><path fill="rgb(10,1,86)" stroke="rgb(10,1,86)" stroke-width="1" opacity="1" d="M 171.5 130 L 175 130.5 L 171.5 131 L 171.5 130 Z "></path><path fill="rgb(10,1,86)" stroke="rgb(10,1,86)" stroke-width="1" opacity="1" d="M 196.5 177 L 197 196 L 3 195.5 L 196 195 L 196.5 177 Z "></path><path fill="rgb(2,249,41)" stroke="rgb(2,249,41)" stroke-width="1" opacity="1" d="M 3 149 L 7 150.5 L 7 152 Q 3.3 150.5 4 153.5 L 12 157.5 Q 10.5 161.9 13.5 161 Q 16.3 159.8 14 158.5 L 14 154 Q 10.2 155.5 11 152.5 Q 13.3 151.3 10.5 150 L 8 149.5 L 194.5 149 L 196 150.5 L 196 174.5 L 193.5 175 L 16.5 175 L 14.5 174 L 13.5 175 L 3 175 L 3 158.5 L 5 158 Q 3.8 161 7.5 160 L 7.5 159 Q 4.5 159.7 6 156 L 3 156 L 3 149 Z M 18 150 L 18 151 L 191 151 L 18 150 Z M 16 152 L 14 154 L 16 154 L 16 152 Z M 192 152 Q 191 155 194 154 Q 195 151 192 152 Z M 16 154 L 17 160 L 64 160 L 65 159 L 67 160 L 71 159 L 73 160 L 191 160 L 191 158 L 194 158 L 195 156 L 192 156 L 192 154 L 16 154 Z M 16 161 L 13 166 L 14 170 Q 13 173 16 172 L 17 169 L 16 161 Z M 195 164 L 193 167 L 194 170 L 195 170 L 195 164 Z M 8 165 Q 6 170 10 169 Q 12 164 8 165 Z M 33 171 L 33 172 L 35 172 L 33 171 Z M 38 171 L 38 172 L 40 172 L 38 171 Z "></path><path fill="rgb(2,249,41)" stroke="rgb(2,249,41)" stroke-width="1" opacity="1" d="M 8 152 L 10 152.5 L 8 153.5 L 8 152 Z "></path><path fill="rgb(0,246,19)" stroke="rgb(0,246,19)" stroke-width="1" opacity="1" d="M 195.5 149 L 197 149.5 L 197 174.5 L 196 174.5 L 196 150.5 L 195.5 149 Z "></path><path fill="rgb(41,225,86)" stroke="rgb(41,225,86)" stroke-width="1" opacity="1" d="M 2 148 L 197 148.5 L 3 149 L 2.5 151 L 2 148 Z "></path><path fill="rgb(41,225,86)" stroke="rgb(41,225,86)" stroke-width="1" opacity="1" d="M 2.5 152 L 3 175 L 197 175.5 L 2 176 L 2.5 152 Z "></path><path fill="rgb(3,248,43)" stroke="rgb(3,248,43)" stroke-width="1" opacity="1" d="M 6.5 149 L 12 151.5 L 11 154 Q 14.4 154.8 15.5 152 L 16 154 L 191.5 154 Q 190.9 151.3 194 152 L 192 156 L 195 156.5 L 191 158 L 190.5 160 L 72.5 160 L 70.5 159 L 66.5 160 L 64.5 159 L 63.5 160 L 17 160 L 16 154 Q 12.3 152.7 14 158.5 Q 16.3 159.8 13.5 161 Q 10.5 161.9 12 157.5 L 4 153.5 L 4 152 Q 7.8 153.5 7 150.5 L 6.5 149 Z M 8 152 L 8 154 L 10 153 L 8 152 Z "></path><path fill="rgb(3,248,43)" stroke="rgb(3,248,43)" stroke-width="1" opacity="1" d="M 17.5 150 L 191 150.5 L 17.5 151 L 17.5 150 Z "></path><path fill="rgb(3,248,43)" stroke="rgb(3,248,43)" stroke-width="1" opacity="1" d="M 3 156 L 6 156 Q 4.5 159.8 7.5 159 L 7.5 160 L 5 160 L 3 156 Z "></path><path fill="rgb(3,248,43)" stroke="rgb(3,248,43)" stroke-width="1" opacity="1" d="M 15.5 161 L 17 168.5 L 16 172 Q 13 173.3 14 169.5 L 13 165.5 L 15.5 161 Z "></path><path fill="rgb(3,248,43)" stroke="rgb(3,248,43)" stroke-width="1" opacity="1" d="M 194.5 164 L 195 169.5 L 194 169.5 L 193 166.5 L 194.5 164 Z "></path><path fill="rgb(3,248,43)" stroke="rgb(3,248,43)" stroke-width="1" opacity="1" d="M 8 165 Q 11.7 163.8 10 169 L 7.5 170 L 8 168.5 L 8 165 Z "></path><path fill="rgb(3,248,43)" stroke="rgb(3,248,43)" stroke-width="1" opacity="1" d="M 32.5 171 L 35 171.5 L 32.5 172 L 32.5 171 Z "></path><path fill="rgb(3,248,43)" stroke="rgb(3,248,43)" stroke-width="1" opacity="1" d="M 37.5 171 L 40 171.5 L 37.5 172 L 37.5 171 Z "></path></svg>